<?xml version="1.0" standalone="no"?>
<!DOCTYPE svg PUBLIC "-//W3C//DTD SVG 20010904//EN"
 "http://www.w3.org/TR/2001/REC-SVG-20010904/DTD/svg10.dtd">
<svg version="1.0" xmlns="http://www.w3.org/2000/svg"
 width="400.000000pt" height="400.000000pt" viewBox="0 0 400.000000 400.000000"
 preserveAspectRatio="xMidYMid meet">
<metadata>
Created by potrace 1.14, written by Peter Selinger 2001-2017
</metadata>
<g transform="translate(0.000000,400.000000) scale(0.100000,-0.100000)"
fill="#000000" stroke="none">
<path d="M1760 3985 c-143 -18 -252 -43 -385 -86 -511 -167 -940 -544 -1175
-1031 -330 -684 -246 -1485 219 -2093 64 -85 232 -256 321 -328 116 -93 243
-174 385 -243 681 -335 1489 -252 2100 215 85 64 256 232 328 321 594 736 594
1784 0 2520 -72 89 -243 257 -328 321 -230 176 -517 311 -788 370 -217 48
-475 61 -677 34z m545 -159 c192 -36 332 -80 488 -156 496 -239 857 -679 993
-1209 86 -336 69 -740 -46 -1064 -194 -549 -644 -984 -1190 -1152 -121 -37
-199 -53 -330 -70 -630 -78 -1255 175 -1654 669 -214 264 -347 570 -398 911
-18 126 -16 406 5 530 67 402 229 722 511 1013 295 304 676 488 1126 546 73 9
417 -3 495 -18z"/>
<path d="M746 3268 c-2 -7 -10 -55 -18 -106 -11 -69 -12 -95 -4 -98 7 -3 48
-8 91 -12 l80 -7 -1 -52 -2 -51 56 -7 55 -7 -6 -59 c-4 -52 -3 -59 15 -65 18
-5 20 -12 14 -51 -3 -25 -6 -59 -6 -74 l0 -29 -100 0 -100 0 0 -42 c0 -24 -3
-67 -6 -95 l-7 -53 96 0 c53 0 98 -3 100 -7 2 -5 -2 -100 -9 -213 -30 -454
-54 -831 -59 -935 -8 -138 -10 -151 -33 -157 -17 -5 -20 -24 -31 -179 -6 -96
-13 -203 -14 -239 l-2 -65 140 4 c77 1 142 4 146 6 3 3 9 78 13 167 3 90 9
196 13 236 6 69 5 72 -16 72 -22 0 -22 1 -16 112 18 342 45 872 50 1003 3 83
8 160 11 173 l4 22 790 0 790 0 4 -22 c3 -13 12 -162 21 -333 9 -170 22 -432
30 -581 19 -354 19 -374 -1 -374 -15 0 -16 -19 -10 -217 4 -120 10 -228 13
-240 5 -23 8 -23 149 -23 l144 0 0 28 c0 15 -7 117 -15 227 -8 110 -15 206
-15 213 0 6 -8 12 -19 12 -22 0 -22 4 -46 385 -9 132 -24 373 -35 535 -11 162
-20 316 -20 343 l0 47 95 0 95 0 0 49 c0 26 -3 69 -6 94 l-7 46 -96 3 -96 3
-5 72 c-4 64 -3 73 14 77 17 4 18 11 12 65 l-7 59 56 7 57 8 -4 51 c-2 39 0
51 12 53 8 1 50 5 93 8 l78 7 -6 41 c-25 173 -26 176 -54 171 -32 -5 -343 -22
-636 -34 -286 -12 -868 -12 -1160 0 -318 13 -605 29 -638 36 -18 4 -28 1 -31
-8z m1122 -373 c9 -3 12 -37 12 -125 l0 -120 -332 2 -333 3 -3 49 c-4 62 4 96
23 96 8 0 16 9 16 20 1 11 3 25 4 30 1 6 3 21 4 34 l1 25 298 -6 c163 -2 303
-6 310 -8z m862 -36 c0 -41 3 -52 19 -56 15 -4 20 -17 23 -71 3 -37 3 -70 1
-74 -2 -4 -153 -6 -336 -5 l-332 2 -3 118 c-1 64 -1 118 0 119 2 1 109 4 238
8 129 3 270 7 313 8 l77 2 0 -51z"/>
<path d="M1722 2325 c-7 -9 -30 -15 -52 -15 l-40 0 0 -49 0 -50 48 -3 47 -3 0
-220 0 -220 58 -1 c31 -1 59 2 62 6 3 4 -1 23 -9 41 -18 46 -29 362 -12 383 6
9 31 16 61 18 l50 3 3 48 3 47 -54 0 c-36 0 -59 5 -67 15 -16 19 -81 19 -98 0z"/>
<path d="M2080 2270 c0 -6 -11 -15 -25 -20 -22 -8 -25 -16 -25 -55 0 -41 2
-45 25 -45 24 0 25 -3 25 -54 0 -44 -5 -60 -26 -85 -14 -17 -22 -32 -17 -32 4
-1 15 -2 23 -3 12 -1 15 -25 18 -138 l3 -138 64 0 c36 0 65 3 65 8 0 4 -7 28
-14 54 -12 38 -20 137 -17 196 1 8 24 12 81 12 l80 0 0 55 0 55 -86 0 -85 0 3
33 3 32 83 3 83 3 -3 52 -3 52 -75 3 c-41 2 -79 7 -84 12 -13 13 -96 13 -96 0z"/>
<path d="M1864 2156 c-9 -24 4 -48 23 -44 24 4 24 52 0 56 -9 2 -20 -4 -23
-12z"/>
<path d="M1860 2045 c0 -20 5 -25 25 -25 20 0 25 5 25 25 0 20 -5 25 -25 25
-20 0 -25 -5 -25 -25z"/>
<path d="M2275 1870 c-12 -20 6 -51 28 -48 31 4 31 52 0 56 -11 2 -24 -2 -28
-8z"/>
<path d="M2274 1766 c-9 -22 4 -36 32 -36 21 0 25 4 22 23 -4 26 -45 37 -54
13z"/>
<path d="M1450 1695 c-11 -13 -9 -19 7 -38 88 -98 503 -587 503 -592 0 -4 -30
-43 -66 -87 -59 -70 -65 -81 -52 -94 13 -13 19 -10 54 28 21 24 51 58 66 76
15 17 30 32 35 32 5 0 37 -34 72 -75 35 -41 67 -75 71 -75 4 0 13 6 19 14 10
12 -2 30 -59 96 -60 71 -69 85 -58 99 15 19 171 203 210 246 139 158 298 350
298 361 0 26 -24 27 -44 2 -19 -23 -205 -239 -420 -487 -86 -100 -90 -102
-105 -83 -34 42 -512 592 -515 592 -2 0 -9 -7 -16 -15z"/>
<path d="M1381 1621 c-27 -37 -26 -42 4 -71 l26 -24 24 29 c30 37 30 36 4 69
-26 33 -33 33 -58 -3z"/>
<path d="M2555 1620 l-29 -30 31 -31 30 -31 27 28 c14 16 26 31 26 35 0 3 -13
17 -28 32 l-28 27 -29 -30z"/>
<path d="M1448 1506 l-27 -32 26 -33 26 -32 28 27 c36 34 36 44 2 76 l-28 25
-27 -31z"/>
<path d="M2488 1508 l-25 -33 26 -33 27 -32 27 28 c34 35 34 42 -1 76 l-29 27
-25 -33z"/>
<path d="M1372 1397 c-27 -29 -27 -35 3 -72 l25 -30 29 35 29 35 -22 27 c-26
33 -37 34 -64 5z"/>
<path d="M2562 1397 c-28 -30 -28 -38 7 -71 l28 -27 27 31 26 32 -22 28 c-28
35 -38 36 -66 7z"/>
<path d="M1442 1280 c-27 -36 -27 -36 2 -70 l24 -29 26 28 c14 15 26 31 26 35
0 12 -40 66 -49 66 -4 0 -17 -13 -29 -30z"/>
<path d="M2496 1281 l-28 -29 28 -37 28 -37 28 31 c15 17 28 35 28 39 0 5 -13
20 -28 35 l-28 27 -28 -29z"/>
<path d="M1367 1172 c-33 -34 -33 -39 -1 -77 l25 -30 29 34 29 34 -26 33 c-14
19 -26 34 -27 34 -1 0 -14 -13 -29 -28z"/>
<path d="M2572 1167 c-27 -29 -27 -35 3 -72 l24 -29 26 24 c31 29 32 50 2 78
-29 27 -29 27 -55 -1z"/>
</g>
</svg>
