<svg width="26" height="61" viewBox="0 0 26 61" fill="none" xmlns="http://www.w3.org/2000/svg">
<g clip-path="url(#clip0_3638_59006)">
<path d="M1.43272 57.4329C1.49261 57.4864 1.57746 57.5789 1.65732 57.6665C1.62238 57.6178 1.5575 57.5448 1.43272 57.4329Z" fill="#FFFDE7"/>
<path d="M21.0075 86.0437L20.6032 86.2676C20.9077 85.7955 21.2421 85.5765 20.8328 85.7565C21.0075 86.0437 19.5302 86.9296 19.7098 87.2168L19.4403 87.3579C19.5052 87.3044 19.5052 87.2801 19.5701 87.2265C19.0261 87.4845 19.4104 87.6841 18.8115 88.1367C18.5968 88.2876 18.4271 88.3704 18.5369 88.2243L18.1576 88.6624C18.0279 88.7695 18.0179 88.6965 18.1476 88.5943L17.4988 89.193V89.1832C17.4389 89.3049 17.2742 89.5531 17.1944 89.67C16.9947 89.7819 17.2542 89.5677 17.1844 89.5775L16.8699 89.9571C16.6603 90.0253 16.9099 89.6943 17.1744 89.485C16.6054 89.5385 16.9248 89.8111 16.0514 90.3125L16.3708 89.9815C16.0165 90.035 15.7919 90.3222 15.3177 90.5753C15.4525 90.5412 16.306 90.1129 15.9616 90.5218C15.8318 90.5996 15.6771 90.7213 15.5024 90.9598C15.4225 90.8722 15.2279 91.0767 14.9684 91.3103L14.8785 91.1789C14.624 91.4612 14.6988 91.5001 14.5791 91.6997C14.2496 91.9625 14.1049 91.9285 13.9602 91.9187C13.4361 92.3422 14.4443 91.7581 13.8603 92.3032C13.3962 92.6245 13.1416 92.9311 12.6974 93.4422C12.363 93.6613 12.6825 93.3254 12.5477 93.3838L12.368 93.7051C12.3031 93.7586 12.2981 93.7099 12.2932 93.6905C12.2033 93.8316 12.393 93.8121 12.1933 94.0458C12.1933 94.148 12.0686 94.2015 11.9637 94.2259C11.8989 94.1091 11.844 93.9922 11.7891 93.9046C11.7591 93.8608 11.7342 93.8268 11.6992 93.7975C11.6593 93.7635 11.6343 93.7586 11.5495 93.7051C11.4896 93.5736 11.6693 93.6905 11.6842 93.6223C11.0604 93.1307 11.1652 93.1891 10.6012 92.8289L10.3117 92.3568C10.4914 92.7316 10.0422 92.4444 9.65289 92.1864C9.7078 92.3276 9.74772 92.4493 9.78765 92.5271L9.24363 92.055C9.2037 91.9723 9.29354 91.9917 9.4233 92.0355C9.37839 92.0112 9.33846 91.982 9.30851 91.9625C9.17874 91.7338 9.33846 91.7727 9.52812 91.8506L9.62794 92.1037C9.8176 92.1718 10.0122 92.2254 10.0572 92.1378C10.0122 92.1134 9.94238 92.0599 9.86751 91.9917C9.91742 92.0112 9.95735 92.0161 9.95236 91.9917C9.95236 91.9625 9.8725 91.9285 9.7627 91.87L9.78765 91.6364L9.70779 91.651L9.15878 90.8868C8.57483 90.5072 7.98589 90.2492 7.21227 89.5093C7.48678 89.6213 7.41192 89.412 7.53669 89.3244C7.61156 89.6456 8.1456 89.889 8.48998 90.3173C8.3103 90.0934 8.40513 90.0934 8.47501 90.1324L7.7014 89.5045C7.8112 89.4412 7.63152 89.2903 7.49677 89.0664C7.44186 89.373 6.87787 88.6332 6.55346 88.385C6.59838 88.312 6.72815 88.3266 7.04258 88.7013C6.82298 88.1805 6.35382 88.3752 6.11924 87.8836C6.19909 87.9712 6.23403 88.0248 6.29891 88.0345C6.05435 87.8787 5.6401 87.3336 5.8048 87.4066L5.88466 87.4942C5.37557 86.8907 4.26257 85.7127 4.02799 85.7614C4.04296 85.7371 4.28753 85.6738 4.35241 85.6787L2.87007 85.0994C3.08968 85.0751 3.09467 84.4375 3.61374 84.8561C3.50393 84.7003 3.37416 84.5105 3.05474 84.2574C3.11962 84.3693 3.0747 84.6662 2.94493 84.5446C2.77025 84.0578 2.8002 84.2282 2.53068 83.6733C2.6305 83.8388 2.27114 83.868 2.07649 83.6392C2.14138 83.6489 2.27114 83.4397 2.36597 83.5029L1.64726 83.1233C1.81197 83.2303 1.84691 82.9918 1.79201 82.8166C1.80199 82.9091 1.35279 82.3299 1.19807 82.1985L1.36777 82.4759C0.823744 81.8139 0.504316 82.106 -0.0546799 81.4683C0.0601139 81.5073 0.384531 81.4245 0.120007 81.0838C-0.119564 81.0303 -0.988003 80.8842 -1.57695 80.4024L-1.61188 80.2417L-2.07106 79.8767C-1.66679 80.0032 -0.648615 80.451 -0.149509 80.7431C-0.314215 80.4656 -0.139526 80.6165 -0.463945 80.2661C-0.518847 80.0909 -0.199421 80.3829 -0.104591 80.4851L-0.818308 79.6284C-0.908146 79.7745 -1.51705 79.1076 -1.59691 79.2293L-0.648615 80.013C-0.738453 80.159 -1.47713 79.8037 -1.98621 79.2001C-2.07106 79.0103 -1.66179 79.1174 -1.63185 79.0687C-1.74664 79.0298 -2.22079 78.5868 -2.23576 78.5041L-1.94129 78.6939C-2.19084 78.3288 -2.59013 78.3045 -2.8297 77.8129C-2.94449 77.6717 -3.03433 77.2677 -3.12916 77.3116C-3.06927 77.6571 -3.47354 78.0806 -3.7181 78.0271C-3.75304 77.9735 -4.22719 77.1996 -4.29706 76.9854C-4.3869 76.6642 -3.72309 77.0876 -3.80295 76.8151C-3.84288 76.8345 -3.9976 76.7518 -4.0575 76.7129C-4.15732 76.5474 -3.89778 76.6788 -4.19225 76.3867C-4.36694 76.4451 -4.75125 75.7491 -4.43182 76.3332C-4.74127 76.0655 -4.69635 75.9925 -5.02575 75.642C-5.00579 75.827 -5.59473 75.569 -5.90418 75.2964C-5.85427 75.2867 -5.87423 75.1796 -5.88421 75.1309C-6.43323 74.503 -6.67779 74.1234 -7.20185 73.5442C-7.22181 73.4663 -7.43642 73.1548 -7.27172 73.2229C-7.37154 73.1596 -7.48135 73.1207 -7.64605 72.9455C-7.85068 72.5074 -7.26674 73.3251 -7.37654 72.9455C-7.47137 72.9893 -7.89561 72.5755 -8.17511 72.3614C-8.22002 72.5366 -7.66602 72.9649 -7.38652 73.1791C-7.54124 73.3154 -8.11021 73.0185 -8.7291 72.4782C-9.20325 72.0353 -8.81396 72.1813 -8.91378 72.118C-9.70735 71.1932 -9.88703 71.5923 -10.451 70.7454C-10.6207 70.3609 -10.2614 70.5604 -10.2514 70.429C-9.85708 70.7843 -9.77224 71.0812 -9.52767 71.3441L-9.77723 70.979C-9.63248 71.0764 -9.36796 71.31 -9.26814 71.4804C-9.4029 71.1542 -10.6357 69.9471 -11.1847 69.1829C-11.3294 69.0905 -11.559 68.9055 -11.5091 69.0418L-11.2945 69.2511C-11.1897 69.5237 -11.7836 68.9347 -11.569 69.2462C-11.8934 69.0028 -12.2827 68.7497 -12.6171 68.2971L-12.5722 68.1218C-12.5972 68.1608 -12.3925 68.4528 -12.2528 68.5356C-12.4724 68.3944 -12.6421 67.8006 -13.0613 67.64L-12.8168 68.0683C-13.1013 67.8395 -13.5604 67.4842 -13.9847 67.0656C-13.8449 66.9293 -13.6852 66.7833 -13.5105 66.6519C-13.9298 66.832 -13.6603 66.7736 -14.1693 67.0559C-14.1594 67.0753 -14.1544 67.1045 -14.1394 67.1337C-14.1594 66.9536 -13.81 67.3382 -13.4906 67.6886C-13.1661 68.044 -12.8817 68.3555 -13.0464 68.005C-13.0264 68.0634 -12.9815 68.1413 -12.9665 68.1802C-12.9515 68.2241 -12.9316 68.263 -12.9116 68.2971C-12.8717 68.3701 -12.8218 68.4382 -12.7719 68.5064C-12.672 68.6426 -12.5572 68.7887 -12.4624 69.0223C-12.4325 68.9785 -12.5023 68.8373 -12.2428 69.1586C-12.2178 69.1586 -12.1729 69.1829 -12.148 69.1975C-12.143 69.2073 -12.138 69.2121 -12.133 69.2219L-12.143 69.2024C-12.143 69.2024 -12.123 69.2121 -12.143 69.1927C-12.1929 69.1051 -12.2278 69.0272 -12.2278 68.9882C-12.0032 69.0661 -11.559 69.5577 -11.3644 69.6843C-11.2146 69.8838 -11.4792 69.6453 -11.4243 69.7816L-11.1298 69.9715C-11.1897 70.0688 -10.8253 70.5799 -11.2696 70.1905L-10.9202 70.5799C-10.7605 70.8476 -10.4909 71.1786 -10.2813 71.3441C-10.1316 71.5436 -9.76724 71.7237 -9.97686 71.6215L-9.37295 72.1861L-9.38792 72.2105C-8.85388 72.8189 -8.12519 73.3251 -7.65105 74.1429C-7.44641 74.3278 -7.2318 74.5128 -6.94731 74.873L-6.96228 74.9995C-6.70274 75.238 -6.32343 75.8416 -6.14874 75.8854C-6.08885 76.3332 -5.04572 77.1801 -4.66141 77.6669L-4.55161 77.6036C-4.27211 77.92 -3.96766 78.2023 -3.57835 78.5576L-3.51846 78.4603C-3.14413 78.7377 -2.78977 79.3753 -2.29566 79.901C-2.36054 79.8913 -2.47533 79.7501 -2.54022 79.6382C-2.15092 80.4364 -1.18265 80.8599 -0.793352 81.556C-0.63364 81.6728 -0.548794 81.7847 -0.478918 81.9064C-0.488901 81.8918 -0.503874 81.8821 -0.513857 81.8723C-0.498882 81.8869 -0.478918 81.9113 -0.458954 81.9307C-0.414036 82.0086 -0.369116 82.0865 -0.324196 82.1692C-0.359133 82.0914 -0.394072 82.0184 -0.434 81.9648C-0.329187 82.0719 -0.169474 82.2325 0.00521278 82.3785L-0.019743 82.5246C-0.019743 82.5246 0.00521278 82.5489 0.0151958 82.5586C0.12999 82.7485 0.174908 82.6511 0.164927 82.5051C0.254765 82.5732 0.339613 82.6365 0.41947 82.6755C0.394514 82.9334 0.863672 83.0649 0.868662 83.3764C1.04335 83.4202 1.67721 84.1552 1.91678 84.1065C1.90181 84.1308 1.93674 84.1892 1.8519 84.1016C2.00163 84.3012 2.15136 84.5007 2.34601 84.6273L2.30109 84.8025L2.82016 85.0702C2.96989 85.372 3.02479 85.5083 2.71535 85.3428C3.38415 85.8101 3.19948 85.7711 3.78343 86.1508L3.6886 86.1897C3.85331 86.365 4.21266 86.5645 4.2476 86.7203C4.4672 87.2362 6.01443 88.7013 6.81299 89.8306C6.85292 89.4461 7.14739 90.3903 7.35202 90.2833C7.35202 90.3855 7.45684 90.5558 7.26219 90.4293C7.78625 90.9063 7.89106 91.2811 8.36021 91.5147C8.36021 91.6169 8.18553 91.4709 8.2005 91.5488C8.25041 91.5829 8.39515 91.6753 8.41512 91.7581C8.43508 91.836 8.30032 91.7192 8.20549 91.6559C8.6996 92.1816 8.90424 92.0939 9.08891 92.0063C9.26359 92.3373 9.39336 92.4639 9.67286 92.571C9.70779 92.7072 9.80263 92.9068 9.4832 92.5904C9.64291 92.7803 10.4465 93.7878 10.5812 93.7002C10.6062 93.7829 10.8108 93.9679 10.8657 94.002C11.0803 94.2502 11.2001 94.3816 11.3149 94.5179C11.4497 94.6737 11.5894 94.8246 11.844 95.0923L11.7092 94.9073C11.7941 94.9025 11.8639 94.9414 11.9388 95.0144C12.0885 94.8733 12.2832 94.7759 12.5577 94.5228V94.552C12.6874 94.4547 12.7923 94.3816 12.8821 94.3184C12.952 94.2697 13.0019 94.2307 13.0418 94.1967C13.1217 94.1285 13.1616 94.0896 13.1965 94.0458C13.2714 93.963 13.3413 93.8852 13.7755 93.6126L13.6557 93.559C13.5559 93.3108 14.4343 93.082 14.8136 92.6245L14.609 92.7121C14.7937 92.4395 15.5174 92.3811 15.7819 92.1913C15.8518 92.1621 15.722 92.2886 15.6571 92.3665C16.3958 91.9236 15.6372 92.1816 16.0863 91.7435C16.2311 91.7289 16.1163 91.9966 16.4457 91.7338C16.6503 91.6461 17.1894 90.7311 17.7334 90.4682C17.5936 90.5023 17.4539 90.5412 17.6435 90.3125C17.968 90.0009 18.7216 89.6992 18.8913 89.2854C18.9462 89.2611 18.9762 89.2611 18.9861 89.2708C19.2107 89.008 19.7697 88.4774 19.8496 88.2633C20.3637 88.3558 21.3219 86.7252 21.5715 87.0075L22.3551 86.3017V86.3504C22.8841 85.9269 23.0039 85.7079 23.1237 85.484C23.2585 85.4012 23.1986 85.5034 23.1986 85.5229C23.5929 85.2309 23.8075 85.0654 23.9872 84.8853C24.077 84.7977 24.1569 84.7052 24.2417 84.5932C24.3565 84.4569 24.5112 84.2768 24.656 84.087L24.8756 84.0578C24.9205 83.9945 25.0702 83.868 25.2998 83.6928C25.1002 83.4445 24.8257 83.0843 24.4813 82.6803C24.2367 82.3834 24.0021 82.1206 23.7226 81.8918C23.7376 81.8918 23.7725 81.8918 23.8374 81.9356C22.9989 81.2298 22.3501 79.7988 21.7462 79.7988L21.1822 79.3413C21.7761 80.047 20.9426 79.3656 21.1423 79.6966C20.8777 79.4435 20.6132 78.9129 20.9277 79.2293L20.9576 79.2975C21.2421 79.2683 20.2489 78.397 20.3836 78.3094C19.1508 76.9757 18.0578 75.5836 16.9198 74.3181V74.5809L16.5256 74.138C16.4507 73.9968 16.4906 73.8897 16.7701 74.211C16.6953 73.9774 16.2261 73.7437 16.1912 73.7583C15.6871 73.0964 16.5705 73.8605 16.4008 73.6707L16.1562 73.4225L16.1912 73.4955C15.9466 73.3349 15.8717 73.3689 15.5373 72.9893C15.3477 72.7264 15.5124 72.7946 15.4325 72.6972C15.4425 72.6875 15.4175 72.6534 15.3077 72.5512L14.8136 71.9866L14.9085 72.303C14.634 72.1034 14.4393 71.7773 14.5491 72.1375C14.3944 71.602 12.7374 70.0201 12.5876 69.7378C12.1983 69.4652 11.8889 69.1245 11.5146 68.6962C11.5894 68.8179 11.5245 68.9882 11.2101 68.6134C11.5794 68.5307 10.716 67.859 10.6261 67.4112C10.7459 67.7762 9.65788 66.4085 9.86252 66.9634C9.60797 66.6421 9.93738 66.866 9.78765 66.5837C9.03401 65.951 8.41013 64.9483 7.56664 64.0867C7.52172 64.1013 7.60657 64.2912 7.38197 64.1451L7.11744 63.5318C6.94276 63.3712 6.78305 63.5318 6.60337 63.1132C6.61834 63.1814 6.63831 63.2836 6.51852 63.1765C5.09108 61.2977 3.14957 59.7352 1.83693 57.7104C1.99165 58.0024 1.83692 57.8515 1.67222 57.6715C1.76705 57.8029 1.58737 57.7396 1.56741 57.8029L1.01839 56.9559C0.773832 56.9267 0.289701 56.1723 0.100042 56.1966L0.334621 56.4108C-0.0896168 56.221 0.424459 57.1166 0.199863 57.2237C0.674011 57.4329 0.80378 58.348 1.55244 58.7228C1.63229 58.8786 1.39771 58.6644 1.41768 58.7666C1.6273 58.8445 1.80199 59.0051 2.06152 59.3605L2.01161 59.341C2.86009 60.2366 3.13959 60.6941 4.023 61.7601L4.04296 61.6092C4.23262 61.838 4.2476 61.911 4.31747 62.0327C4.68182 62.169 3.76347 61.4096 4.11783 61.5119C4.20268 61.9597 5.53029 63.0646 5.50534 63.4394C5.81478 63.7801 5.51532 63.2495 5.82477 63.5903L5.84972 63.7265L5.99945 63.7509C6.18911 63.9845 6.22405 64.1549 6.18412 64.2036C6.1392 64.1451 6.0294 64.0624 5.9745 64.0089C6.17414 64.3544 6.73812 64.8022 6.80301 64.9191L6.53848 64.5637C7.43188 65.4447 8.39016 66.6324 9.3135 67.4307L9.29354 67.3284C9.99228 67.9417 9.74772 67.9125 10.4614 68.6329L10.4265 68.6134C10.6062 68.7254 10.8058 68.9104 10.9905 69.1197C10.7709 68.9736 11.2201 69.5577 10.9406 69.3582C11.6992 70.025 11.3399 69.6697 11.9388 70.0201L11.9737 70.1905C12.1883 70.3024 12.2333 70.2878 12.5926 70.648C12.2532 70.3949 12.7024 70.979 12.3131 70.7016C12.8771 71.6167 13.5259 71.7335 13.6357 72.2884C14.1548 72.4831 13.1217 71.5193 13.3463 71.6848C13.2564 71.4609 13.7605 71.86 13.9652 72.1229C14.1897 72.376 14.1099 72.7605 14.6889 73.3884C14.634 73.3251 14.614 73.3349 14.5591 73.2716C14.7238 73.549 15.0482 73.6756 15.2329 74.0358C15.4974 74.099 15.5673 74.4154 15.7569 74.3375L15.1979 73.7875C15.5373 74.0796 15.9865 74.2402 16.3958 74.8535C16.3259 74.8389 16.1412 74.7123 16.0215 74.6199C16.1213 74.8146 16.3259 74.8973 16.4307 75.1017C16.2411 75.1845 15.7569 74.4252 15.3277 74.1721C15.4175 74.396 16.0414 74.7415 15.717 74.7075C16.1512 74.7853 16.256 75.35 16.8001 75.642L16.6853 75.6907C16.7601 75.7442 16.9298 75.8513 17.0396 75.9779L16.7202 75.8513C17.1345 76.1142 17.2443 76.5912 17.5986 76.8783C16.9648 76.1872 17.5637 76.6301 17.3591 76.2797C18.2574 77.0341 17.5787 76.9708 18.492 77.8956C18.3623 77.7788 18.1027 77.3602 18.3273 77.5306C18.4771 77.7301 18.6617 77.9979 18.7166 78.1536C19.3155 78.7718 18.7166 77.9784 19.0211 78.2023C19.1109 78.5138 19.3505 78.4749 19.635 78.7231L19.5451 78.801C20.1491 79.5749 19.9095 78.8302 20.4335 79.5408L20.0592 79.3753L20.3986 79.6869L20.2339 79.7063C20.6482 80.0081 20.733 80.1444 21.0325 80.5289C21.0175 80.3878 21.2371 80.4364 21.5316 80.7528C21.6763 81.0157 21.3369 80.7042 21.7612 81.1471C21.6114 81.0935 21.4367 81.04 21.3419 80.7723C21.292 80.7772 21.1922 80.7188 21.1473 80.7236C21.302 81.0108 21.6713 81.3272 21.821 81.4927C21.7661 81.4245 21.7013 81.3467 21.6813 81.298L22.405 81.848C22.4649 81.9794 22.3651 81.921 22.2653 81.8626C22.395 81.9892 22.5198 82.0427 22.7095 82.2325C22.5897 82.2471 22.5248 82.325 22.2403 82.0768L22.8941 82.6365C22.8991 82.7047 23.0988 83.0357 22.9989 82.9772C23.0638 83.0697 23.1487 83.1573 23.2435 83.245C23.2934 83.2888 23.3433 83.3326 23.3982 83.3764C23.4431 83.4153 23.528 83.4883 23.528 83.4737C23.6029 83.4932 23.7226 83.5613 23.7626 83.6295C23.7476 83.6392 23.7376 83.6441 23.7226 83.6538C23.7426 83.6636 23.7476 83.6782 23.7326 83.7122C23.6877 83.7414 23.6428 83.7706 23.5979 83.7901L23.5679 83.8047C23.5679 83.8047 23.5479 83.8144 23.513 83.8388L23.3383 83.9702C23.1087 84.1503 22.8792 84.3499 22.6595 84.6273L22.2453 84.7587C21.861 85.1432 22.7993 84.5689 22.1554 85.2114C21.7063 85.6738 21.876 85.2601 21.6713 85.372C21.4867 85.6446 21.1872 86.1411 20.6432 86.4234C20.7679 86.2725 20.9027 86.1898 21.0325 86.0583L21.0075 86.0437ZM15.9715 90.512C16.0514 90.4098 16.1961 90.181 16.3159 90.1713C16.296 90.3709 16.1662 90.3952 15.9715 90.512ZM9.15878 91.3006C9.25361 91.3444 9.33846 91.4709 9.41831 91.6218C9.32848 91.5391 9.23864 91.432 9.15878 91.3006ZM-10.6207 70.8233H-10.6057C-10.446 71.0764 -10.5009 70.9888 -10.6207 70.8233ZM-10.9851 70.3463C-11.04 70.3122 -11.0499 70.3268 -11.045 70.356C-10.995 70.3657 -10.9002 70.4679 -10.8054 70.5848C-10.8104 70.5312 -10.8453 70.4631 -10.9901 70.3463H-10.9851ZM15.3327 72.6778L15.3876 72.7848C15.183 72.6096 15.2578 72.6437 15.3327 72.6778Z" fill="#FFFDE7"/>
<path d="M0.649017 56.3721L0.444385 56.0703L0.539214 56.2991L0.649017 56.3721Z" fill="#FFFDE7"/>
<path d="M0.0450727 55.9824L0.109955 55.8169L-0.144587 55.7537C-0.0846949 55.8072 0.0300996 55.9143 0.0450727 55.9873V55.9824Z" fill="#FFFDE7"/>
<path d="M11.29 76.2536L24.0542 65.1938L-1.11652 37.565L-13.8807 48.6247L11.29 76.2536Z" fill="#FFFDE7"/>
<path d="M5.31573 45.541L5.28579 45.4875C5.28579 45.4875 5.28579 45.5118 5.31573 45.541Z" fill="#FFFDE7"/>
<path d="M0.788892 38.97C0.848784 39.0235 0.933632 39.116 1.01349 39.2036C0.978551 39.1549 0.913668 39.0819 0.788892 38.97Z" fill="#FFFDE7"/>
<path d="M15.3628 56.1426C15.3628 56.1426 15.3528 56.1182 15.3428 56.1085C15.1881 56.0063 15.248 56.0598 15.3628 56.1426Z" fill="#FFFDE7"/>
<path d="M20.3637 67.5808L19.9594 67.8047C20.2639 67.3326 20.5983 67.1136 20.189 67.2937C20.3637 67.5808 18.8864 68.4667 19.0661 68.7539L18.7965 68.895C18.8614 68.8415 18.8614 68.8172 18.9263 68.7636C18.3823 69.0216 18.7666 69.2212 18.1677 69.6738C17.9531 69.8247 17.7834 69.9075 17.8932 69.7614L17.5138 70.1995C17.3841 70.3066 17.3741 70.2336 17.5039 70.1314L16.855 70.7301V70.7203C16.7951 70.842 16.6304 71.0903 16.5506 71.2071C16.3509 71.319 16.6105 71.1049 16.5406 71.1146L16.2262 71.4943C16.0165 71.5624 16.2661 71.2314 16.5306 71.0221C15.9616 71.0757 16.2811 71.3482 15.4076 71.8496L15.727 71.5186C15.3727 71.5721 15.1481 71.8593 14.6739 72.1124C14.8087 72.0783 15.6622 71.65 15.3178 72.0589C15.188 72.1368 15.0333 72.2584 14.8586 72.4969C14.7788 72.4093 14.5841 72.6138 14.3246 72.8474L14.2347 72.716C13.9802 72.9983 14.055 73.0372 13.9353 73.2368C13.6059 73.4996 13.4611 73.4656 13.3164 73.4558C12.7923 73.8793 13.8005 73.2952 13.2166 73.8404C12.7524 74.1616 12.4978 74.4683 12.0536 74.9793C11.7192 75.1984 12.0387 74.8625 11.9039 74.9209L11.7242 75.2422C11.6593 75.2957 11.6544 75.247 11.6494 75.2276C11.5595 75.3687 11.7492 75.3493 11.5446 75.5829C11.5446 75.6851 11.4198 75.7387 11.315 75.763C11.2501 75.6462 11.1952 75.5294 11.1403 75.4417C11.1103 75.3979 11.0854 75.3639 11.0504 75.3347C11.0105 75.3006 10.9856 75.2957 10.9007 75.2422C10.8408 75.1108 11.0205 75.2276 11.0355 75.1594C10.4116 74.6678 10.5164 74.7262 9.95241 74.366L9.66293 73.8939C9.84261 74.2687 9.39342 73.9815 9.00411 73.7235C9.05902 73.8647 9.09894 73.9864 9.13887 74.0643L8.59485 73.5921C8.55492 73.5094 8.64476 73.5288 8.77453 73.5726C8.72961 73.5483 8.68968 73.5191 8.65973 73.4996C8.52997 73.2709 8.68968 73.3098 8.87934 73.3877L8.97916 73.6408C9.16882 73.7089 9.36347 73.7625 9.40839 73.6749C9.36347 73.6505 9.29359 73.597 9.21873 73.5288C9.26864 73.5483 9.30857 73.5532 9.30358 73.5288C9.30358 73.4996 9.22372 73.4656 9.11392 73.4072L9.13887 73.1735L9.05902 73.1881L8.51 72.4239C7.92605 72.0443 7.33711 71.7863 6.5635 71.0464C6.838 71.1584 6.76314 70.9491 6.88791 70.8615C6.96278 71.1827 7.49682 71.4261 7.8412 71.8544C7.66153 71.6305 7.75636 71.6305 7.82623 71.6695L7.05262 71.0416C7.16242 70.9783 6.98274 70.8274 6.84798 70.6035C6.79308 70.9102 6.2291 70.1703 5.90468 69.9221C5.9496 69.8491 6.07936 69.8637 6.3938 70.2385C6.17419 69.7176 5.70504 69.9123 5.47046 69.4207C5.55032 69.5083 5.58525 69.5619 5.65014 69.5716C5.40557 69.4159 4.99132 68.8707 5.15602 68.9437L5.23588 69.0313C4.72679 68.4278 3.61379 67.2498 3.37921 67.2985C3.39419 67.2742 3.63875 67.2109 3.70363 67.2158L2.22129 66.6365C2.4409 66.6122 2.44589 65.9746 2.96496 66.3932C2.85515 66.2374 2.72539 66.0476 2.40596 65.7945C2.47084 65.9064 2.42592 66.2033 2.29616 66.0817C2.12147 65.5949 2.15142 65.7653 1.8819 65.2104C1.98172 65.3759 1.62237 65.4051 1.42772 65.1763C1.4926 65.1861 1.62237 64.9768 1.7172 65.04L0.998486 64.6604C1.16319 64.7675 1.19813 64.529 1.14322 64.3537C1.15321 64.4462 0.704014 63.867 0.549292 63.7356L0.718987 64.013C0.174963 63.351 -0.144463 63.6431 -0.703459 63.0054C-0.588665 63.0444 -0.264248 62.9616 -0.528772 62.6209C-0.768343 62.5674 -1.63679 62.4214 -2.22573 61.9395L-2.26066 61.7789L-2.71984 61.4138C-2.31557 61.5403 -1.29739 61.9882 -0.793297 62.2802C-0.958002 62.0028 -0.783316 62.1536 -1.10773 61.8032C-1.16264 61.628 -0.843208 61.92 -0.748379 62.0222L-1.4621 61.1656C-1.55194 61.3116 -2.16084 60.6447 -2.2407 60.7664L-1.2924 61.5501C-1.38224 61.6961 -2.12091 61.3408 -2.63 60.7372C-2.71485 60.5474 -2.30558 60.6545 -2.27564 60.6058C-2.38544 60.5669 -2.86458 60.1239 -2.87955 60.0412L-2.58508 60.231C-2.83463 59.8659 -3.23392 59.8416 -3.47349 59.35C-3.58828 59.2088 -3.67812 58.8048 -3.77295 58.8487C-3.71306 59.1942 -4.11733 59.6177 -4.36189 59.5642C-4.39683 59.5106 -4.87098 58.7367 -4.94085 58.5225C-5.03069 58.2013 -4.37188 58.6248 -4.44674 58.3522C-4.48667 58.3717 -4.64139 58.2889 -4.70128 58.25C-4.8011 58.0845 -4.54157 58.2159 -4.83604 57.9238C-5.01073 57.9823 -5.39504 57.2862 -5.07561 57.8703C-5.38505 57.6026 -5.34014 57.5296 -5.66954 57.1791C-5.64958 57.3641 -6.23852 57.1061 -6.54797 56.8335C-6.49806 56.8238 -6.51802 56.7167 -6.528 56.668C-7.07702 56.0401 -7.32158 55.6605 -7.84564 55.0813C-7.8656 55.0034 -8.08022 54.6919 -7.91551 54.76C-8.01533 54.6967 -8.12513 54.6578 -8.28984 54.4826C-8.49447 54.0445 -7.91052 54.8622 -8.02032 54.4826C-8.11515 54.5264 -8.53939 54.1126 -8.81889 53.8985C-8.86381 54.0737 -8.30981 54.502 -8.03031 54.7162C-8.18503 54.8525 -8.75401 54.5556 -9.37289 54.0153C-9.84704 53.5724 -9.45774 53.7184 -9.55756 53.6551C-10.3511 52.7303 -10.5308 53.1294 -11.0948 52.2825C-11.2645 51.898 -10.9051 52.0975 -10.8952 51.9661C-10.5009 52.3214 -10.416 52.6183 -10.1715 52.8812L-10.421 52.5161C-10.2763 52.6135 -10.0117 52.8471 -9.91193 53.0175C-10.0467 52.6914 -11.2795 51.4842 -11.8285 50.72C-11.9732 50.6276 -12.2028 50.4426 -12.1529 50.5789L-11.9383 50.7882C-11.8335 51.0608 -12.4274 50.4718 -12.2128 50.7833C-12.5372 50.54 -12.9265 50.2868 -13.2609 49.8342L-13.216 49.6589C-13.241 49.6979 -13.0363 49.9899 -12.8966 50.0727C-13.1162 49.9315 -13.2859 49.3377 -13.7051 49.1771L-13.4606 49.6054C-13.745 49.3766 -14.2042 49.0213 -14.6285 48.6027C-14.4887 48.4664 -14.329 48.3204 -14.1543 48.189C-14.5736 48.3691 -14.304 48.3107 -14.8131 48.593C-14.8031 48.6124 -14.7982 48.6416 -14.7832 48.6709C-14.8032 48.4908 -14.4538 48.8753 -14.1343 49.2257C-13.8099 49.5811 -13.5254 49.8926 -13.6901 49.5421C-13.6702 49.6005 -13.6253 49.6784 -13.6103 49.7174C-13.5953 49.7612 -13.5754 49.8001 -13.5554 49.8342C-13.5155 49.9072 -13.4655 49.9753 -13.4156 50.0435C-13.3158 50.1798 -13.201 50.3258 -13.1062 50.5594C-13.0762 50.5156 -13.1461 50.3745 -12.8866 50.6957C-12.8616 50.6957 -12.8167 50.72 -12.7918 50.7346C-12.7868 50.7444 -12.7818 50.7492 -12.7768 50.759L-12.7868 50.7395C-12.7868 50.7395 -12.7668 50.7493 -12.7868 50.7298C-12.8367 50.6422 -12.8716 50.5643 -12.8716 50.5253C-12.647 50.6032 -12.2028 51.0948 -12.0082 51.2214C-11.8584 51.421 -12.123 51.1824 -12.0681 51.3187L-11.7736 51.5086C-11.8335 51.6059 -11.4691 52.117 -11.9133 51.7276L-11.564 52.117C-11.4042 52.3847 -11.1347 52.7157 -10.9251 52.8812C-10.7754 53.0807 -10.411 53.2608 -10.6207 53.1586L-10.0167 53.7232L-10.0317 53.7476C-9.49767 54.356 -8.76898 54.8622 -8.29483 55.68C-8.0902 55.8649 -7.87558 56.0499 -7.59109 56.4101L-7.60108 56.5366C-7.34154 56.7751 -6.96222 57.3787 -6.78754 57.4225C-6.72764 57.8703 -5.68452 58.7172 -5.30021 59.204L-5.1904 59.1407C-4.91091 59.4571 -4.60645 59.7394 -4.21715 60.0947L-4.15726 59.9974C-3.78293 60.2748 -3.42857 60.9125 -2.93445 61.4381C-2.99934 61.4284 -3.11413 61.2872 -3.17902 61.1753C-2.78971 61.9735 -1.82145 62.397 -1.43215 63.0931C-1.27244 63.2099 -1.18759 63.3218 -1.11772 63.4435C-1.1277 63.4289 -1.14267 63.4192 -1.15265 63.4094C-1.13768 63.424 -1.11772 63.4484 -1.09775 63.4679C-1.05283 63.5457 -1.00791 63.6236 -0.962994 63.7064C-0.997931 63.6285 -1.03287 63.5555 -1.0728 63.5019C-0.967985 63.609 -0.808271 63.7696 -0.633585 63.9157L-0.658539 64.0617C-0.658539 64.0617 -0.633585 64.086 -0.623602 64.0957C-0.508808 64.2856 -0.463888 64.1882 -0.473871 64.0422C-0.384033 64.1104 -0.299185 64.1736 -0.21933 64.2126C-0.244284 64.4705 0.224874 64.602 0.229866 64.9135C0.404552 64.9573 1.03841 65.6923 1.27798 65.6436C1.26301 65.6679 1.29795 65.7263 1.2131 65.6387C1.36283 65.8383 1.51256 66.0379 1.70721 66.1644L1.66229 66.3396L2.18136 66.6073C2.33109 66.9091 2.386 67.0454 2.07655 66.8799C2.74535 67.3472 2.56068 67.3083 3.14463 67.6879L3.0498 67.7269C3.21451 67.9021 3.57386 68.1016 3.6088 68.2574C3.82841 68.7734 5.37563 70.2385 6.17419 71.3677C6.21412 70.9832 6.50859 71.9275 6.71323 71.8204C6.71323 71.9226 6.81804 72.0929 6.62339 71.9664C7.14745 72.4434 7.25226 72.8182 7.72142 73.0518C7.72142 73.154 7.54673 73.008 7.5617 73.0859C7.61161 73.12 7.75636 73.2125 7.77632 73.2952C7.79628 73.3731 7.66153 73.2563 7.5667 73.193C8.06081 73.7187 8.26544 73.6311 8.45011 73.5434C8.6248 73.8744 8.75456 74.001 9.03406 74.1081C9.069 74.2444 9.16383 74.4439 8.8444 74.1275C9.00411 74.3174 9.80767 75.3249 9.94243 75.2373C9.96739 75.3201 10.172 75.505 10.2269 75.5391C10.4415 75.7873 10.5613 75.9187 10.6761 76.055C10.8109 76.2108 10.9506 76.3617 11.2052 76.6294L11.0704 76.4444C11.1553 76.4396 11.2251 76.4785 11.3 76.5515C11.4497 76.4104 11.6444 76.313 11.9189 76.0599V76.0891C12.0486 75.9918 12.1535 75.9187 12.2433 75.8555C12.3132 75.8068 12.3631 75.7679 12.403 75.7338C12.4829 75.6656 12.5228 75.6267 12.5577 75.5829C12.6326 75.5001 12.7025 75.4223 13.1367 75.1497L13.0169 75.0962C12.9171 74.8479 13.7955 74.6191 14.1748 74.1616L13.9702 74.2492C14.1549 73.9766 14.8786 73.9182 15.1431 73.7284C15.213 73.6992 15.0832 73.8257 15.0183 73.9036C15.757 73.4607 14.9984 73.7187 15.4475 73.2806C15.5923 73.266 15.4775 73.5337 15.8069 73.2709C16.0115 73.1833 16.5506 72.2682 17.0946 72.0053C16.9548 72.0394 16.8151 72.0783 17.0048 71.8496C17.3292 71.5381 18.0828 71.2363 18.2525 70.8225C18.3074 70.7982 18.3374 70.7982 18.3473 70.8079C18.5719 70.5451 19.1309 70.0145 19.2108 69.8004C19.7249 69.8929 20.6832 68.2623 20.9327 68.5446L21.7163 67.8388V67.8875C22.2453 67.464 22.3651 67.245 22.4849 67.0211C22.6197 66.9383 22.5598 67.0406 22.5598 67.06C22.9541 66.768 23.1687 66.6025 23.3484 66.4224C23.4382 66.3348 23.5181 66.2423 23.6029 66.1303C23.7177 65.9941 23.8724 65.814 24.0172 65.6241L24.2368 65.5949C24.2817 65.5316 24.4314 65.4051 24.661 65.2299C24.4614 64.9816 24.1869 64.6214 23.8425 64.2174C23.5979 63.9205 23.3633 63.6577 23.0838 63.4289C23.0988 63.4289 23.1338 63.4289 23.1986 63.4727C22.3601 62.7669 21.7113 61.3359 21.1074 61.3359L20.5434 60.8784C21.1373 61.5842 20.3038 60.9027 20.5035 61.2337C20.2389 60.9806 19.9744 60.45 20.2889 60.7664L20.3188 60.8346C20.6033 60.8054 19.6101 59.9341 19.7448 59.8465C18.512 58.5128 17.419 57.1207 16.2811 55.8552V56.118L15.8868 55.6751C15.8119 55.5339 15.8518 55.4269 16.1313 55.7481C16.0565 55.5145 15.5873 55.2808 15.5524 55.2954C15.0483 54.6335 15.9317 55.3976 15.762 55.2078L15.5174 54.9596L15.5524 55.0326C15.3078 54.872 15.2329 54.906 14.8985 54.5264C14.7089 54.2635 14.8736 54.3317 14.7937 54.2343C14.8037 54.2246 14.7787 54.1905 14.6689 54.0883L14.1748 53.5237L14.2697 53.8401C13.9952 53.6405 13.8005 53.3144 13.9103 53.6746C13.7556 53.1392 12.0986 51.5572 11.9488 51.2749C11.5595 51.0024 11.2501 50.6616 10.8758 50.2333C10.9506 50.355 10.8857 50.5253 10.5713 50.1506C10.9406 50.0678 10.0772 49.3961 9.98735 48.9483C10.1071 49.3134 9.01909 47.9456 9.22372 48.5005C8.96918 48.1792 9.29859 48.4031 9.14886 48.1208C8.39521 47.4881 7.77133 46.4854 6.92784 45.6238C6.88292 45.6384 6.96777 45.8283 6.74317 45.6822L6.47865 45.069C6.30396 44.9083 6.14425 45.069 5.96457 44.6504C5.97954 44.7185 5.99951 44.8207 5.87972 44.7136C4.45229 42.8348 2.51077 41.2724 1.19813 39.2475C1.35285 39.5396 1.19813 39.3887 1.03342 39.2086C1.12825 39.34 0.948576 39.2767 0.928612 39.34L0.379597 38.4931C0.135035 38.4638 -0.349096 37.7094 -0.538755 37.7337L-0.304176 37.9479C-0.728415 37.7581 -0.214336 38.6537 -0.438934 38.7608C0.0352154 38.9701 0.164982 39.8851 0.913637 40.2599C0.993494 40.4157 0.758915 40.2015 0.778879 40.3037C0.988503 40.3816 1.16319 40.5422 1.42272 40.8976L1.37281 40.8781C2.22129 41.7737 2.50079 42.2312 3.3842 43.2972L3.40417 43.1463C3.59383 43.3751 3.6088 43.4481 3.67867 43.5698C4.04302 43.7061 3.12467 42.9468 3.47903 43.049C3.56388 43.4968 4.8915 44.6017 4.86654 44.9765C5.17599 45.3172 4.87652 44.7866 5.18597 45.1274L5.21092 45.2636L5.36065 45.288C5.55031 45.5216 5.58525 45.692 5.54532 45.7407C5.50041 45.6823 5.3906 45.5995 5.3357 45.546C5.53534 45.8915 6.09933 46.3394 6.16421 46.4562L5.89969 46.1008C6.79309 46.9819 7.75136 48.1695 8.67471 48.9678L8.65474 48.8656C9.35349 49.4788 9.10893 49.4496 9.82265 50.17L9.78771 50.1506C9.96739 50.2625 10.167 50.4475 10.3517 50.6568C10.1321 50.5107 10.5813 51.0948 10.3018 50.8953C11.0604 51.5621 10.7011 51.2068 11.3 51.5572L11.3349 51.7276C11.5495 51.8396 11.5945 51.8249 11.9538 52.1851C11.6144 51.932 12.0636 52.5161 11.6743 52.2387C12.2383 53.1538 12.8871 53.2706 12.9969 53.8255C13.516 54.0202 12.4829 53.0564 12.7075 53.2219C12.6176 52.998 13.1217 53.3971 13.3264 53.66C13.551 53.9131 13.4711 54.2976 14.0501 54.9255C13.9952 54.8622 13.9752 54.872 13.9203 54.8087C14.085 55.0861 14.4094 55.2127 14.5941 55.5729C14.8586 55.6362 14.9285 55.9525 15.1181 55.8747L14.5591 55.3246C14.8985 55.6167 15.3477 55.7773 15.757 56.3906C15.6871 56.376 15.5025 56.2494 15.3827 56.157C15.4825 56.3517 15.6871 56.4344 15.7919 56.6388C15.6023 56.7216 15.1181 55.9623 14.6889 55.7092C14.7788 55.9331 15.4026 56.2787 15.0782 56.2446C15.5124 56.3225 15.6172 56.8871 16.1613 57.1791L16.0465 57.2278C16.1213 57.2813 16.291 57.3884 16.4008 57.515L16.0814 57.3884C16.4957 57.6513 16.6055 58.1283 16.9598 58.4155C16.326 57.7243 16.9249 58.1672 16.7203 57.8168C17.6187 58.5712 16.9349 58.5079 17.8532 59.4327C17.7235 59.3159 17.4639 58.8973 17.6885 59.0677C17.8383 59.2673 18.0229 59.535 18.0778 59.6907C18.6768 60.3089 18.0778 59.5155 18.3823 59.7394C18.4721 60.0509 18.7117 60.012 18.9962 60.2602L18.9063 60.3381C19.5103 61.112 19.2707 60.3673 19.7947 61.0779L19.4204 60.9125L19.7598 61.224L19.5951 61.2434C20.0094 61.5452 20.0942 61.6815 20.3937 62.066C20.3787 61.9249 20.5983 61.9736 20.8928 62.2899C21.0375 62.5528 20.6981 62.2413 21.1224 62.6842C20.9726 62.6307 20.7979 62.5771 20.7031 62.3094C20.6532 62.3143 20.5534 62.2559 20.5085 62.2607C20.6632 62.5479 21.0325 62.8643 21.1823 63.0298C21.1274 62.9616 21.0625 62.8838 21.0425 62.8351L21.7662 63.3851C21.8261 63.5165 21.7263 63.4581 21.6215 63.3997C21.7512 63.5263 21.876 63.5798 22.0657 63.7696C21.9459 63.7842 21.881 63.8621 21.5965 63.6139L22.2503 64.1736C22.2553 64.2418 22.455 64.5728 22.3551 64.5143C22.42 64.6068 22.5049 64.6944 22.5997 64.7821C22.6496 64.8259 22.6995 64.8697 22.7544 64.9135C22.7994 64.9524 22.8842 65.0254 22.8842 65.0108C22.9591 65.0303 23.0789 65.0984 23.1188 65.1666C23.1038 65.1763 23.0938 65.1812 23.0789 65.1909C23.0988 65.2007 23.1038 65.2153 23.0888 65.2493C23.0439 65.2785 22.999 65.3077 22.9541 65.3272L22.9241 65.3418C22.9241 65.3418 22.9042 65.3515 22.8692 65.3759L22.6945 65.5073C22.465 65.6874 22.2354 65.887 22.0158 66.1644L21.6015 66.2958C21.2172 66.6804 22.1555 66.106 21.5117 66.7485C21.0625 67.2109 21.2322 66.7972 21.0275 66.9091C20.8429 67.1817 20.5434 67.6782 19.9994 67.9605C20.1242 67.8096 20.2589 67.7269 20.3887 67.5954L20.3637 67.5808ZM15.3278 72.0491C15.4076 71.9469 15.5524 71.7182 15.6721 71.7084C15.6522 71.908 15.5224 71.9323 15.3278 72.0491ZM8.51499 72.8377C8.60982 72.8815 8.69467 73.008 8.77453 73.1589C8.68469 73.0762 8.59485 72.9691 8.51499 72.8377ZM-11.2645 52.3604H-11.2495C-11.0898 52.6135 -11.1447 52.5259 -11.2645 52.3604ZM-11.6338 51.8834C-11.6887 51.8493 -11.6987 51.8639 -11.6937 51.8931C-11.6438 51.9028 -11.549 52.005 -11.4542 52.1219C-11.4592 52.0683 -11.4941 52.0002 -11.6388 51.8834H-11.6338ZM14.6839 54.2149L14.7388 54.3219C14.5342 54.1467 14.6091 54.1808 14.6839 54.2149Z" fill="#FFFDE7"/>
<path d="M0.00534058 37.9043L-0.199292 37.6074L-0.104463 37.8313L0.00534058 37.9043Z" fill="#FFFDE7"/>
<path d="M11.4389 48.6061L24.2031 37.5464L-0.967616 9.91752L-13.7318 20.9772L11.4389 48.6061Z" fill="#FFFDE7"/>
<path d="M18.038 44.8579L18.1628 44.7119C18.1029 44.7752 18.0629 44.8238 18.038 44.8579Z" fill="#FFFDE7"/>
<path d="M16.9898 45.7536V45.812C17.0247 45.7487 17.0347 45.7195 16.9898 45.7536Z" fill="#FFFDE7"/>
<path d="M9.15881 48.8052C9.14883 48.7808 9.13885 48.7516 9.12887 48.7224C9.054 48.6981 8.98912 48.6738 8.92423 48.6494C8.99411 48.6932 9.07397 48.7468 9.15881 48.8003V48.8052Z" fill="#FFFDE7"/>
<path d="M9.62301 48.6592L9.81766 48.9756C9.78272 48.8977 9.71784 48.7955 9.62301 48.6592Z" fill="#FFFDE7"/>
<path d="M23.1837 40.2485C23.1837 40.2485 23.1487 40.2335 23.1337 40.2285C23.0988 40.2185 23.0689 40.2135 23.0389 40.2085C23.0439 40.2135 23.0489 40.2185 23.0539 40.2235C23.0539 40.2435 23.1238 40.2435 23.1837 40.2485Z" fill="#FFFDE7"/>
<path d="M18.3923 46.0503C18.4672 45.9578 18.4921 45.9091 18.4722 45.8945C18.3923 45.987 18.3574 46.0454 18.3923 46.0503Z" fill="#FFFDE7"/>
<path d="M5.46545 20.6328L5.43551 20.5793C5.43551 20.5793 5.43551 20.6036 5.46545 20.6328Z" fill="#FFFDE7"/>
<path d="M0.938641 14.0618C0.998534 14.1153 1.08338 14.2078 1.16324 14.2954C1.1283 14.2467 1.06342 14.1737 0.938641 14.0618Z" fill="#FFFDE7"/>
<path d="M15.5125 31.2339C15.5125 31.2339 15.5025 31.2096 15.4925 31.1998C15.3378 31.0976 15.3977 31.1511 15.5125 31.2339Z" fill="#FFFDE7"/>
<path d="M3.11966 41.4793L3.09924 41.469C3.09924 41.469 3.10945 41.4844 3.11455 41.4946V41.4844L3.11966 41.4793Z" fill="#FFFDE7"/>
<path d="M3.61383 41.9033C3.32934 41.7914 3.2395 41.6648 3.11972 41.4945L3.02988 41.8547L3.61383 41.9082V41.9033Z" fill="#FFFDE7"/>
<path d="M20.5134 42.6721L20.1092 42.896C20.4136 42.4239 20.748 42.2049 20.3388 42.385C20.5134 42.6721 19.0361 43.558 19.2158 43.8452L18.9463 43.9863C19.0111 43.9328 19.0111 43.9085 19.076 43.8549C18.532 44.1129 18.9163 44.3125 18.3174 44.7651C18.1028 44.916 17.9331 44.9988 18.0429 44.8528L17.6636 45.2908C17.5338 45.3979 17.5238 45.3249 17.6536 45.2227L17.0047 45.8214V45.8116C16.9449 45.9333 16.7801 46.1816 16.7003 46.2984C16.5006 46.4103 16.7602 46.1962 16.6903 46.2059L16.3759 46.5856C16.1662 46.6537 16.4158 46.3227 16.6803 46.1134C16.1113 46.167 16.4308 46.4395 15.5573 46.9409L15.8768 46.6099C15.5224 46.6634 15.2978 46.9506 14.8237 47.2037C14.9584 47.1696 15.8119 46.7413 15.4675 47.1502C15.3377 47.2281 15.183 47.3497 15.0083 47.5882C14.9285 47.5006 14.7338 47.7051 14.4743 47.9387L14.3844 47.8073C14.1299 48.0896 14.2048 48.1285 14.085 48.3281C13.7556 48.5909 13.6108 48.5569 13.4661 48.5471C12.942 48.9706 13.9502 48.3865 13.3663 48.9317C12.9021 49.2529 12.6476 49.5596 12.2034 50.0706C11.869 50.2897 12.1884 49.9538 12.0536 50.0122L11.874 50.3335C11.8091 50.387 11.8041 50.3383 11.7991 50.3189C11.7092 50.46 11.8989 50.4406 11.6943 50.6742C11.6943 50.7764 11.5695 50.83 11.4647 50.8543C11.3998 50.7375 11.3449 50.6207 11.29 50.533C11.2601 50.4892 11.2351 50.4552 11.2002 50.426C11.1602 50.3919 11.1353 50.387 11.0504 50.3335C10.9905 50.2021 11.1702 50.3189 11.1852 50.2507C10.5613 49.7591 10.6661 49.8175 10.1021 49.4573L9.81265 48.9852C9.99233 49.36 9.54314 49.0728 9.15384 48.8148C9.20874 48.956 9.24867 49.0777 9.2886 49.1556L8.74457 48.6834C8.70464 48.6007 8.79448 48.6201 8.92425 48.6639C8.87933 48.6396 8.8394 48.6104 8.80945 48.5909C8.67969 48.3622 8.8394 48.4011 9.02906 48.479L9.12888 48.7321C9.31854 48.8002 9.51319 48.8538 9.55811 48.7662C9.51319 48.7418 9.44332 48.6883 9.36845 48.6201C9.41836 48.6396 9.45829 48.6445 9.4533 48.6201C9.4533 48.5909 9.37344 48.5569 9.26364 48.4985L9.2886 48.2648L9.20874 48.2794L8.65972 47.5152C8.07577 47.1356 7.48683 46.8776 6.71322 46.1378C6.98772 46.2497 6.91286 46.0404 7.03764 45.9528C7.1125 46.274 7.64654 46.5174 7.99092 46.9457C7.81125 46.7218 7.90608 46.7218 7.97595 46.7608L7.20234 46.1329C7.31214 46.0696 7.13247 45.9187 6.99771 45.6948C6.94281 46.0015 6.37882 45.2616 6.0544 45.0134C6.09932 44.9404 6.22909 44.955 6.54352 45.3298C6.32392 44.8089 5.85476 45.0036 5.62018 44.512C5.70004 44.5996 5.73497 44.6532 5.79986 44.6629C5.5553 44.5072 5.14104 43.962 5.30574 44.035L5.3856 44.1226C4.87651 43.5191 3.76351 42.3412 3.52893 42.3898C3.54391 42.3655 3.78847 42.3022 3.85335 42.3071L2.37101 41.7279C2.59062 41.7035 2.59561 41.0659 3.11468 41.4845C3.00488 41.3287 2.87511 41.1389 2.55568 40.8858C2.62057 40.9977 2.57565 41.2947 2.44588 41.173C2.27119 40.6862 2.30114 40.8566 2.03162 40.3017C2.13144 40.4672 1.77209 40.4964 1.57744 40.2676C1.64232 40.2774 1.77209 40.0681 1.86692 40.1313L1.14821 39.7517C1.31291 39.8588 1.34785 39.6203 1.29295 39.445C1.30293 39.5375 0.853737 38.9583 0.699015 38.8269L0.86871 39.1043C0.324686 38.4423 0.00526047 38.7344 -0.553736 38.0968C-0.438942 38.1357 -0.114525 38.0529 -0.379051 37.7122C-0.61862 37.6587 -1.48706 37.5127 -2.076 37.0308L-2.11094 36.8702L-2.57012 36.5051C-2.16584 36.6317 -1.14767 37.0795 -0.643576 37.3715C-0.808279 37.0941 -0.633595 37.245 -0.958012 36.8945C-1.01291 36.7193 -0.693485 37.0113 -0.598656 37.1135L-1.31237 36.2569C-1.40221 36.4029 -2.01112 35.736 -2.09098 35.8577L-1.14268 36.6414C-1.23252 36.7874 -1.97119 36.4321 -2.48028 35.8285C-2.56513 35.6387 -2.15586 35.7458 -2.12592 35.6971C-2.23572 35.6582 -2.71486 35.2152 -2.72983 35.1325L-2.43536 35.3223C-2.68491 34.9573 -3.08419 34.9329 -3.32376 34.4413C-3.43856 34.3002 -3.5284 33.8962 -3.62323 33.94C-3.56333 34.2855 -3.96761 34.709 -4.21217 34.6555C-4.24711 34.6019 -4.72125 33.828 -4.79113 33.6138C-4.88097 33.2926 -4.22215 33.7161 -4.29702 33.4435C-4.33694 33.463 -4.49167 33.3802 -4.55156 33.3413C-4.65138 33.1758 -4.39185 33.3072 -4.68632 33.0152C-4.861 33.0736 -5.24532 32.3775 -4.92589 32.9616C-5.23533 32.6939 -5.19041 32.6209 -5.51982 32.2704C-5.49986 32.4554 -6.0888 32.1974 -6.39824 31.9248C-6.34833 31.9151 -6.3683 31.808 -6.37828 31.7594C-6.92729 31.1315 -7.17185 30.7518 -7.69592 30.1726C-7.71588 30.0947 -7.93049 29.7832 -7.76579 29.8513C-7.86561 29.788 -7.97541 29.7491 -8.14012 29.5739C-8.34475 29.1358 -7.7608 29.9535 -7.8706 29.5739C-7.96543 29.6177 -8.38967 29.2039 -8.66917 28.9898C-8.71409 29.165 -8.16008 29.5933 -7.88058 29.8075C-8.03531 29.9438 -8.60429 29.6469 -9.22318 29.1066C-9.69732 28.6637 -9.30802 28.8097 -9.40784 28.7464C-10.2014 27.8216 -10.3811 28.2207 -10.9451 27.3738C-11.1148 26.9893 -10.7554 27.1888 -10.7454 27.0574C-10.3511 27.4127 -10.2663 27.7096 -10.0217 27.9725L-10.2713 27.6074C-10.1266 27.7048 -9.86203 27.9384 -9.7622 28.1088C-9.89696 27.7827 -11.1297 26.5755 -11.6788 25.8113C-11.8235 25.7189 -12.0531 25.5339 -12.0032 25.6702L-11.7886 25.8795C-11.6838 26.1521 -12.2777 25.5631 -12.0631 25.8746C-12.3875 25.6313 -12.7768 25.3782 -13.1112 24.9255L-13.0663 24.7503C-13.0912 24.7892 -12.8866 25.0812 -12.7468 25.164C-12.9665 25.0228 -13.1362 24.429 -13.5554 24.2684L-13.3108 24.6967C-13.5953 24.4679 -14.0545 24.1126 -14.4787 23.694C-14.339 23.5577 -14.1793 23.4117 -14.0046 23.2803C-14.4238 23.4604 -14.1543 23.402 -14.6634 23.6843C-14.6534 23.7038 -14.6484 23.733 -14.6335 23.7622C-14.6534 23.5821 -14.3041 23.9666 -13.9846 24.3171C-13.6602 24.6724 -13.3757 24.9839 -13.5404 24.6334C-13.5205 24.6918 -13.4755 24.7697 -13.4606 24.8087C-13.4456 24.8525 -13.4256 24.8914 -13.4057 24.9255C-13.3657 24.9985 -13.3158 25.0666 -13.2659 25.1348C-13.1661 25.2711 -13.0513 25.4171 -12.9565 25.6507C-12.9265 25.6069 -12.9964 25.4658 -12.7369 25.787C-12.7119 25.787 -12.667 25.8113 -12.642 25.826C-12.637 25.8357 -12.6321 25.8406 -12.6271 25.8503L-12.637 25.8308C-12.637 25.8308 -12.6171 25.8406 -12.637 25.8211C-12.687 25.7335 -12.7219 25.6556 -12.7219 25.6167C-12.4973 25.6945 -12.0531 26.1861 -11.8584 26.3127C-11.7087 26.5123 -11.9732 26.2738 -11.9183 26.41L-11.6239 26.5999C-11.6838 26.6972 -11.3194 27.2083 -11.7636 26.8189L-11.4142 27.2083C-11.2545 27.476 -10.985 27.807 -10.7754 27.9725C-10.6257 28.1721 -10.2613 28.3522 -10.4709 28.2499L-9.86702 28.8146L-9.88199 28.8389C-9.34795 29.4473 -8.61926 29.9535 -8.14511 30.7713C-7.94048 30.9562 -7.72586 31.1412 -7.44137 31.5014L-7.45135 31.6279C-7.19182 31.8664 -6.8125 32.47 -6.63782 32.5138C-6.57792 32.9616 -5.53479 33.8085 -5.15048 34.2953L-5.04068 34.232C-4.76118 34.5484 -4.45673 34.8307 -4.06743 35.186L-4.00754 35.0887C-3.63321 35.3661 -3.27884 36.0038 -2.78473 36.5294C-2.84962 36.5197 -2.96441 36.3786 -3.02929 36.2666C-2.63999 37.0649 -1.67173 37.4883 -1.28243 38.1844C-1.12271 38.3012 -1.03787 38.4131 -0.967993 38.5348C-0.977976 38.5202 -0.992949 38.5105 -1.00293 38.5008C-0.987957 38.5154 -0.967993 38.5397 -0.948029 38.5592C-0.903111 38.637 -0.858191 38.7149 -0.813271 38.7977C-0.848207 38.7198 -0.883146 38.6468 -0.923075 38.5932C-0.818262 38.7003 -0.658548 38.8609 -0.483862 39.007L-0.508818 39.153C-0.508818 39.153 -0.483862 39.1773 -0.473879 39.1871C-0.359085 39.3769 -0.314167 39.2795 -0.324148 39.1335C-0.23431 39.2017 -0.149462 39.2649 -0.0696049 39.3039C-0.0945606 39.5618 0.374598 39.6933 0.379587 40.0048C0.554274 40.0486 1.18814 40.7836 1.42771 40.7349C1.41273 40.7592 1.44767 40.8177 1.36282 40.73C1.51255 40.9296 1.66228 41.1292 1.85694 41.2557L1.81202 41.4309L2.33109 41.6987C2.48082 42.0004 2.53572 42.1367 2.22627 41.9712C2.89507 42.4385 2.7104 42.3996 3.29436 42.7792L3.19953 42.8182C3.36423 42.9934 3.72359 43.193 3.75852 43.3487C3.97813 43.8647 5.52535 45.3298 6.32392 46.459C6.36384 46.0745 6.65832 47.0188 6.86295 46.9117C6.86295 47.0139 6.96776 47.1843 6.77311 47.0577C7.29717 47.5347 7.40198 47.9095 7.87114 48.1431C7.87114 48.2454 7.69645 48.0993 7.71143 48.1772C7.76134 48.2113 7.90608 48.3038 7.92604 48.3865C7.946 48.4644 7.81125 48.3476 7.71642 48.2843C8.21053 48.81 8.41516 48.7224 8.59983 48.6347C8.77452 48.9657 8.90428 49.0923 9.18378 49.1994C9.21872 49.3357 9.31355 49.5352 8.99412 49.2188C9.15384 49.4087 9.95739 50.4162 10.0922 50.3286C10.1171 50.4114 10.3217 50.5963 10.3766 50.6304C10.5913 50.8786 10.711 51.0101 10.8258 51.1463C10.9606 51.3021 11.1003 51.453 11.3549 51.7207L11.2201 51.5357C11.305 51.5309 11.3748 51.5698 11.4497 51.6428C11.5994 51.5017 11.7941 51.4043 12.0686 51.1512V51.1804C12.1984 51.0831 12.3032 51.0101 12.393 50.9468C12.4629 50.8981 12.5128 50.8592 12.5527 50.8251C12.6326 50.7569 12.6725 50.718 12.7075 50.6742C12.7823 50.5915 12.8522 50.5136 13.2864 50.241L13.1666 50.1875C13.0668 49.9392 13.9452 49.7104 14.3246 49.2529L14.1199 49.3405C14.3046 49.0679 15.0283 49.0095 15.2928 48.8197C15.3627 48.7905 15.2329 48.9171 15.168 48.9949C15.9067 48.552 15.1481 48.81 15.5973 48.3719C15.742 48.3573 15.6272 48.625 15.9566 48.3622C16.1613 48.2746 16.7003 47.3595 17.2443 47.0966C17.1046 47.1307 16.9648 47.1696 17.1545 46.9409C17.4789 46.6294 18.2325 46.3276 18.4022 45.9139C18.4571 45.8895 18.4871 45.8895 18.4971 45.8992C18.7217 45.6364 19.2807 45.1059 19.3605 44.8917C19.8746 44.9842 20.8329 43.3536 21.0824 43.6359L21.866 42.9301V42.9788C22.3951 42.5553 22.5149 42.3363 22.6346 42.1124C22.7694 42.0296 22.7095 42.1319 22.7095 42.1513C23.1038 41.8593 23.3184 41.6938 23.4981 41.5137C23.5879 41.4261 23.6678 41.3336 23.7526 41.2216C23.8674 41.0854 24.0221 40.9053 24.1669 40.7154L24.3865 40.6862C24.4314 40.6229 24.5811 40.4964 24.8107 40.3212C24.6111 40.0729 24.3366 39.7127 23.9922 39.3087C23.7476 39.0118 23.5131 38.749 23.2336 38.5202C23.2485 38.5202 23.2835 38.5202 23.3484 38.564C22.5099 37.8582 21.861 36.4272 21.2571 36.4272L20.6931 35.9697C21.2871 36.6755 20.4536 35.994 20.6532 36.325C20.3887 36.0719 20.1241 35.5413 20.4386 35.8577L20.4685 35.9259C20.753 35.8967 19.7598 35.0254 19.8946 34.9378C18.6618 33.6041 17.5687 32.212 16.4308 30.9465V31.2093L16.0365 30.7664C15.9616 30.6252 16.0015 30.5182 16.281 30.8394C16.2062 30.6058 15.737 30.3721 15.7021 30.3867C15.198 29.7248 16.0814 30.489 15.9117 30.2991L15.6671 30.0509L15.7021 30.1239C15.4575 29.9633 15.3827 29.9973 15.0483 29.6177C14.8586 29.3548 15.0233 29.423 14.9434 29.3256C14.9534 29.3159 14.9285 29.2818 14.8187 29.1796L14.3246 28.615L14.4194 28.9314C14.1449 28.7318 13.9502 28.4057 14.06 28.7659C13.9053 28.2305 12.2483 26.6485 12.0985 26.3662C11.7092 26.0937 11.3998 25.7529 11.0255 25.3246C11.1003 25.4463 11.0355 25.6167 10.721 25.2419C11.0904 25.1591 10.2269 24.4874 10.1371 24.0396C10.2569 24.4047 9.16881 23.0369 9.37344 23.5918C9.1189 23.2705 9.44831 23.4945 9.29858 23.2121C8.54493 22.5794 7.92105 21.5767 7.07756 20.7151C7.03265 20.7297 7.11749 20.9196 6.89289 20.7736L6.62837 20.1603C6.45368 19.9996 6.29397 20.1603 6.11429 19.7417C6.12927 19.8098 6.14923 19.912 6.02945 19.8049C4.60201 17.9261 2.66049 16.3637 1.34785 14.3388C1.50257 14.6309 1.34785 14.48 1.18315 14.2999C1.27798 14.4313 1.0983 14.368 1.07833 14.4313L0.529318 13.5844C0.284758 13.5552 -0.199373 12.8007 -0.389032 12.825L-0.154453 13.0392C-0.578691 12.8494 -0.0646152 13.745 -0.289211 13.8521C0.184937 14.0614 0.314703 14.9764 1.06336 15.3512C1.14322 15.507 0.90864 15.2928 0.928604 15.395C1.13823 15.4729 1.31291 15.6335 1.57245 15.9889L1.52254 15.9694C2.37101 16.865 2.65051 17.3225 3.53392 18.3885L3.55389 18.2376C3.74355 18.4664 3.75852 18.5394 3.8284 18.6611C4.19274 18.7974 3.27439 18.0381 3.62876 18.1403C3.7136 18.5881 5.04122 19.693 5.01626 20.0678C5.32571 20.4085 5.02625 19.878 5.33569 20.2187L5.36065 20.355L5.51038 20.3793C5.70004 20.6129 5.73497 20.7833 5.69505 20.832C5.65013 20.7736 5.54032 20.6908 5.48542 20.6373C5.68506 20.9829 6.24905 21.4307 6.31393 21.5475L6.04941 21.1922C6.94281 22.0732 7.90109 23.2608 8.82443 24.0591L8.80446 23.9569C9.50321 24.5702 9.25865 24.541 9.97237 25.2613L9.93743 25.2419C10.1171 25.3538 10.3167 25.5388 10.5014 25.7481C10.2818 25.6021 10.731 26.1861 10.4515 25.9866C11.2101 26.6534 10.8508 26.2981 11.4497 26.6485L11.4847 26.8189C11.6993 26.9309 11.7442 26.9163 12.1035 27.2765C11.7642 27.0233 12.2133 27.6074 11.824 27.33C12.388 28.2451 13.0369 28.3619 13.1467 28.9168C13.6657 29.1115 12.6326 28.1477 12.8572 28.3132C12.7673 28.0893 13.2714 28.4884 13.4761 28.7513C13.7007 29.0044 13.6208 29.3889 14.1998 30.0168C14.1449 29.9535 14.1249 29.9633 14.07 29.9C14.2347 30.1774 14.5591 30.304 14.7438 30.6642C15.0083 30.7275 15.0782 31.0438 15.2679 30.966L14.7089 30.4159C15.0483 30.708 15.4974 30.8686 15.9067 31.4819C15.8368 31.4673 15.6522 31.3408 15.5324 31.2483C15.6322 31.443 15.8368 31.5257 15.9417 31.7302C15.752 31.8129 15.2679 31.0536 14.8386 30.8005C14.9285 31.0244 15.5524 31.37 15.2279 31.3359C15.6622 31.4138 15.767 31.9784 16.311 32.2704L16.1962 32.3191C16.2711 32.3727 16.4408 32.4797 16.5506 32.6063L16.2311 32.4797C16.6454 32.7426 16.7552 33.2196 17.1096 33.5068C16.4757 32.8156 17.0746 33.2585 16.87 32.9081C17.7684 33.6625 17.0846 33.5992 18.003 34.5241C17.8732 34.4072 17.6136 33.9886 17.8382 34.159C17.988 34.3586 18.1726 34.6263 18.2275 34.782C18.8265 35.4002 18.2275 34.6068 18.532 34.8307C18.6218 35.1422 18.8614 35.1033 19.1459 35.3515L19.0561 35.4294C19.66 36.2033 19.4204 35.4586 19.9445 36.1692L19.5701 36.0038L19.9095 36.3153L19.7448 36.3347C20.1591 36.6365 20.2439 36.7728 20.5434 37.1573C20.5284 37.0162 20.748 37.0649 21.0425 37.3812C21.1872 37.6441 20.8478 37.3326 21.2721 37.7755C21.1224 37.722 20.9477 37.6684 20.8528 37.4007C20.8029 37.4056 20.7031 37.3472 20.6582 37.352C20.8129 37.6392 21.1822 37.9556 21.332 38.1211C21.2771 38.0529 21.2122 37.9751 21.1922 37.9264L21.9159 38.4764C21.9758 38.6078 21.876 38.5494 21.7712 38.491C21.901 38.6176 22.0257 38.6711 22.2154 38.8609C22.0956 38.8755 22.0307 38.9534 21.7462 38.7052L22.4001 39.2649C22.405 39.3331 22.6047 39.6641 22.5049 39.6057C22.5698 39.6981 22.6546 39.7858 22.7494 39.8734C22.7993 39.9172 22.8493 39.961 22.9042 40.0048C22.9491 40.0437 23.0339 40.1167 23.0339 40.1021C23.1088 40.1216 23.2286 40.1898 23.2685 40.2579C23.2535 40.2676 23.2435 40.2725 23.2286 40.2822C23.2485 40.292 23.2535 40.3066 23.2386 40.3406C23.1936 40.3698 23.1487 40.3991 23.1038 40.4185L23.0738 40.4331C23.0738 40.4331 23.0539 40.4429 23.0189 40.4672L22.8443 40.5986C22.6147 40.7787 22.3851 40.9783 22.1655 41.2557L21.7512 41.3871C21.3669 41.7717 22.3052 41.1973 21.6614 41.8398C21.2122 42.3022 21.3819 41.8885 21.1773 42.0004C20.9926 42.273 20.6931 42.7695 20.1491 43.0518C20.2739 42.9009 20.4086 42.8182 20.5384 42.6867L20.5134 42.6721ZM15.4775 47.1404C15.5573 47.0382 15.7021 46.8095 15.8219 46.7997C15.8019 46.9993 15.6721 47.0236 15.4775 47.1404ZM8.66471 47.929C8.75955 47.9728 8.84439 48.0993 8.92425 48.2502C8.83441 48.1675 8.74457 48.0604 8.66471 47.929ZM-11.1148 27.4517H-11.0998C-10.9401 27.7048 -10.995 27.6172 -11.1148 27.4517ZM-11.4791 26.9747C-11.534 26.9406 -11.544 26.9552 -11.539 26.9844C-11.4891 26.9941 -11.3943 27.0964 -11.2994 27.2132C-11.3044 27.1596 -11.3394 27.0915 -11.4841 26.9747H-11.4791ZM14.8386 29.3062L14.8935 29.4133C14.6889 29.238 14.7638 29.2721 14.8386 29.3062Z" fill="#FFFDE7"/>
<path d="M9.56811 48.6739C9.57809 48.7128 9.56811 48.7372 9.55812 48.7567C9.60803 48.781 9.628 48.7664 9.56811 48.6739Z" fill="#FFFDE7"/>
<path d="M23.1986 40.2629H23.2037C23.1986 40.2629 23.1884 40.2578 23.1781 40.2578L23.1986 40.2681V40.2629Z" fill="#FFFDE7"/>
<path d="M0.414612 38.2622C0.0852031 37.8096 0.209979 38.2622 -0.0745099 37.8436C-0.209268 37.7852 0.155078 38.1892 0.0253113 38.1211C0.299819 38.3304 0.394648 38.4813 0.414612 38.2622Z" fill="#FFFDE7"/>
<path d="M0.0302734 38.1211C-0.0146459 38.087 -0.0595639 38.0529 -0.114465 38.0189C-0.0346086 38.0822 0.00531823 38.1065 0.0302734 38.1211Z" fill="#FFFDE7"/>
<path d="M0.15509 13.0005L-0.0495422 12.6987L0.0452887 12.9275L0.15509 13.0005Z" fill="#FFFDE7"/>
<path d="M14.5043 47.5592V47.6079C14.5792 47.603 14.6441 47.5495 14.7788 47.4424L14.5043 47.5592Z" fill="#FFFDE7"/>
<path d="M18.2774 44.444L18.2125 44.4976L18.4271 44.5024L18.2774 44.444Z" fill="#FFFDE7"/>
<path d="M21.2522 41.6208C21.1224 41.7279 20.9926 41.8788 20.8629 41.9858C21.1224 41.7279 21.4069 41.7279 21.2522 41.6208Z" fill="#FFFDE7"/>
<path d="M14.4749 23.5045L27.2391 12.4448L2.06839 -15.184L-10.6958 -4.12434L14.4749 23.5045Z" fill="#FFFDE7"/>
<path d="M21.0725 25.4756L21.1973 25.3296C21.1374 25.3928 21.0975 25.4415 21.0725 25.4756Z" fill="#FFFDE7"/>
<path d="M20.0244 26.3708V26.4292C20.0593 26.3659 20.0693 26.3367 20.0244 26.3708Z" fill="#FFFDE7"/>
<path d="M2.19137 19.4007C2.31115 19.6636 2.41097 19.9848 2.47086 19.8875L2.49582 19.756C2.35108 19.6246 2.26124 19.5078 2.19137 19.4007Z" fill="#FFFDE7"/>
<path d="M12.1935 29.4229C12.1836 29.3985 12.1736 29.3693 12.1636 29.3401C12.0887 29.3158 12.0238 29.2914 11.959 29.2671C12.0288 29.3109 12.1087 29.3644 12.1935 29.418V29.4229Z" fill="#FFFDE7"/>
<path d="M12.6577 29.2769L12.8524 29.5933C12.8174 29.5154 12.7525 29.4132 12.6577 29.2769Z" fill="#FFFDE7"/>
<path d="M21.4268 26.668C21.5017 26.5755 21.5267 26.5268 21.5067 26.5122C21.4268 26.6047 21.3919 26.6631 21.4268 26.668Z" fill="#FFFDE7"/>
<path d="M8.5 1.25L8.47005 1.19645C8.47005 1.19645 8.47005 1.2208 8.5 1.25Z" fill="#FFFDE7"/>
<path d="M18.542 11.8516C18.542 11.8516 18.532 11.8272 18.5221 11.8175C18.3673 11.7153 18.4272 11.7688 18.542 11.8516Z" fill="#FFFDE7"/>
<path d="M6.15439 22.0964L6.13397 22.0862C6.13397 22.0862 6.14418 22.1016 6.14928 22.1118V22.1016L6.15439 22.0964Z" fill="#FFFDE7"/>
<path d="M6.64838 22.521C6.36389 22.4091 6.27405 22.2825 6.15426 22.1122L6.06442 22.4723L6.64838 22.5259V22.521Z" fill="#FFFDE7"/>
<path d="M23.5481 23.2898L23.1438 23.5137C23.4483 23.0416 23.7827 22.8225 23.3734 23.0026C23.5481 23.2898 22.0707 24.1757 22.2504 24.4629L21.9809 24.604C22.0458 24.5505 22.0458 24.5261 22.1107 24.4726C21.5667 24.7306 21.951 24.9301 21.352 25.3828C21.1374 25.5337 20.9677 25.6165 21.0775 25.4704L20.6982 25.9085C20.5684 26.0156 20.5585 25.9426 20.6882 25.8404L20.0394 26.4391V26.4293C19.9795 26.551 19.8148 26.7992 19.7349 26.9161C19.5353 27.028 19.7948 26.8138 19.725 26.8236L19.4105 27.2032C19.2009 27.2714 19.4504 26.9404 19.715 26.7311C19.146 26.7846 19.4654 27.0572 18.592 27.5586L18.9114 27.2276C18.5571 27.2811 18.3325 27.5683 17.8583 27.8214C17.9931 27.7873 18.8465 27.359 18.5022 27.7679C18.3724 27.8457 18.2177 27.9674 18.043 28.2059C17.9631 28.1183 17.7685 28.3227 17.5089 28.5564L17.4191 28.425C17.1646 28.7073 17.2394 28.7462 17.1196 28.9458C16.7902 29.2086 16.6455 29.1745 16.5007 29.1648C15.9767 29.5883 16.9849 29.0042 16.4009 29.5493C15.9368 29.8706 15.6822 30.1772 15.238 30.6883C14.9036 30.9074 15.223 30.5715 15.0883 30.6299L14.9086 30.9512C14.8437 31.0047 14.8387 30.956 14.8337 30.9366C14.7439 31.0777 14.9336 31.0582 14.7339 31.2919C14.7339 31.3941 14.6091 31.4476 14.5043 31.472C14.4394 31.3552 14.3845 31.2383 14.3296 31.1507C14.2997 31.1069 14.2747 31.0728 14.2398 31.0436C14.1999 31.0096 14.1749 31.0047 14.0901 30.9512C14.0302 30.8197 14.2099 30.9366 14.2248 30.8684C13.601 30.3768 13.7058 30.4352 13.1418 30.075L12.8523 29.6029C13.032 29.9777 12.5828 29.6905 12.1935 29.4325C12.2484 29.5737 12.2883 29.6954 12.3282 29.7732L11.7842 29.3011C11.7443 29.2184 11.8341 29.2378 11.9639 29.2816C11.919 29.2573 11.879 29.2281 11.8491 29.2086C11.7193 28.9799 11.879 29.0188 12.0687 29.0967L12.1685 29.3498C12.3582 29.4179 12.5528 29.4715 12.5978 29.3838C12.5528 29.3595 12.483 29.306 12.4081 29.2378C12.458 29.2573 12.4979 29.2622 12.4929 29.2378C12.4929 29.2086 12.4131 29.1745 12.3033 29.1161L12.3282 28.8825L12.2484 28.8971L11.6994 28.1329C11.1154 27.7533 10.5265 27.4953 9.75286 26.7554C10.0274 26.8674 9.9525 26.6581 10.0773 26.5705C10.1521 26.8917 10.6862 27.1351 11.0306 27.5634C10.8509 27.3395 10.9457 27.3395 11.0156 27.3785L10.242 26.7506C10.3518 26.6873 10.1721 26.5364 10.0373 26.3125C9.98245 26.6191 9.41846 25.8793 9.09404 25.6311C9.13896 25.558 9.26873 25.5726 9.58316 25.9474C9.36356 25.4266 8.8944 25.6213 8.65982 25.1297C8.73968 25.2173 8.77461 25.2709 8.8395 25.2806C8.59494 25.1248 8.18068 24.5797 8.34538 24.6527L8.42524 24.7403C7.91615 24.1368 6.80315 22.9588 6.56857 23.0075C6.58355 22.9832 6.82811 22.9199 6.89299 22.9248L5.41065 22.3455C5.63026 22.3212 5.63525 21.6836 6.15432 22.1022C6.04451 21.9464 5.91475 21.7566 5.59532 21.5035C5.6602 21.6154 5.61528 21.9123 5.48552 21.7907C5.31083 21.3039 5.34078 21.4743 5.07126 20.9194C5.17108 21.0849 4.81173 21.1141 4.61708 20.8853C4.68196 20.895 4.81173 20.6857 4.90656 20.749L4.18785 20.3694C4.35255 20.4764 4.38749 20.2379 4.33259 20.0627C4.34257 20.1552 3.89338 19.576 3.73865 19.4445L3.90835 19.722C3.36432 19.06 3.0449 19.3521 2.4859 18.7144C2.6007 18.7534 2.92511 18.6706 2.66059 18.3299C2.42102 18.2764 1.55258 18.1303 0.963636 17.6485L0.928699 17.4878L0.469522 17.1228C0.873796 17.2493 1.89197 17.6971 2.39606 17.9892C2.23136 17.7117 2.40605 17.8626 2.08163 17.5122C2.02673 17.3369 2.34615 17.629 2.44098 17.7312L1.72726 16.8745C1.63743 17.0206 1.02852 16.3537 0.948662 16.4754L1.89696 17.2591C1.80712 17.4051 1.06845 17.0498 0.559361 16.4462C0.474514 16.2564 0.883778 16.3635 0.913725 16.3148C0.803921 16.2758 0.324781 15.8329 0.309809 15.7502L0.60428 15.94C0.354729 15.5749 -0.0445538 15.5506 -0.284124 15.059C-0.398918 14.9178 -0.488758 14.5138 -0.583588 14.5576C-0.523695 14.9032 -0.927969 15.3267 -1.17253 15.2732C-1.20747 15.2196 -1.68162 14.4457 -1.75149 14.2315C-1.84133 13.9103 -1.18251 14.3337 -1.25738 14.0612C-1.29731 14.0806 -1.45203 13.9979 -1.51192 13.9589C-1.61174 13.7935 -1.35221 13.9249 -1.64668 13.6328C-1.82137 13.6912 -2.20568 12.9952 -1.88625 13.5793C-2.19569 13.3116 -2.15077 13.2386 -2.48018 12.8881C-2.46022 13.0731 -3.04916 12.8151 -3.3586 12.5425C-3.30869 12.5328 -3.32866 12.4257 -3.33864 12.377C-3.88766 11.7491 -4.13222 11.3695 -4.65628 10.7903C-4.67624 10.7124 -4.89085 10.4009 -4.72615 10.469C-4.82597 10.4057 -4.93577 10.3668 -5.10048 10.1916C-5.30511 9.75349 -4.72116 10.5712 -4.83096 10.1916C-4.92579 10.2354 -5.35003 9.82162 -5.62953 9.60746C-5.67445 9.78269 -5.12045 10.211 -4.84095 10.4252C-4.99567 10.5615 -5.56464 10.2646 -6.18353 9.72429C-6.65768 9.28135 -6.26838 9.42736 -6.3682 9.36409C-7.16178 8.43927 -7.34146 8.83842 -7.90545 7.99148C-8.07514 7.60695 -7.71578 7.80651 -7.7058 7.67509C-7.31151 8.03041 -7.22666 8.32732 -6.9821 8.59017L-7.23165 8.22511C-7.08691 8.32246 -6.82239 8.55609 -6.72256 8.72645C-6.85732 8.40034 -8.09011 7.19321 -8.63912 6.42902C-8.78386 6.33654 -9.01345 6.15159 -8.96354 6.28788L-8.74893 6.49718C-8.64412 6.76975 -9.23805 6.18079 -9.02344 6.4923C-9.34785 6.24893 -9.73715 5.99583 -10.0716 5.54316L-10.0266 5.36793C-10.0516 5.40687 -9.84696 5.69892 -9.70721 5.78166C-9.92682 5.64051 -10.0965 5.04668 -10.5158 4.88606L-10.2712 5.31439C-10.5557 5.08562 -11.0149 4.7303 -11.4391 4.3117C-11.2993 4.17542 -11.1396 4.02939 -10.965 3.89797C-11.3842 4.07806 -11.1147 4.01965 -11.6238 4.30196C-11.6138 4.32143 -11.6088 4.35063 -11.5938 4.37984C-11.6138 4.19974 -11.2644 4.58428 -10.945 4.93473C-10.6206 5.29006 -10.3361 5.60157 -10.5008 5.25111C-10.4808 5.30952 -10.4359 5.38739 -10.4209 5.42633C-10.406 5.47014 -10.386 5.50909 -10.366 5.54316C-10.3261 5.61617 -10.2762 5.68431 -10.2263 5.75246C-10.1265 5.88875 -10.0117 6.03477 -9.91683 6.26841C-9.88689 6.2246 -9.95676 6.08344 -9.69723 6.40469C-9.67227 6.40469 -9.62735 6.42902 -9.60239 6.44363C-9.5974 6.45336 -9.59241 6.45824 -9.58742 6.46797L-9.59741 6.4485C-9.59741 6.4485 -9.57744 6.45824 -9.59741 6.43877C-9.64732 6.35115 -9.68225 6.27327 -9.68225 6.23433C-9.45766 6.31221 -9.01345 6.80382 -8.8188 6.93037C-8.66907 7.12993 -8.9336 6.89144 -8.8787 7.02772L-8.58422 7.21756C-8.64412 7.31491 -8.27977 7.82598 -8.72398 7.43659L-8.3746 7.82599C-8.21489 8.0937 -7.94537 8.42467 -7.73575 8.59017C-7.58601 8.78973 -7.22167 8.96983 -7.43129 8.86761L-6.82738 9.43224L-6.84235 9.45657C-6.30831 10.065 -5.57962 10.5712 -5.10547 11.3889C-4.90084 11.5739 -4.68622 11.7589 -4.40173 12.1191L-4.41172 12.2456C-4.15218 12.4841 -3.77286 13.0877 -3.59818 13.1315C-3.53828 13.5793 -2.49516 14.4262 -2.11085 14.913L-2.00104 14.8497C-1.72155 15.1661 -1.41709 15.4484 -1.02779 15.8037L-0.967897 15.7064C-0.593571 15.9838 -0.239206 16.6214 0.254908 17.1471C0.190023 17.1374 0.0752316 16.9962 0.0103474 16.8843C0.399649 17.6825 1.36791 18.106 1.75721 18.802C1.91693 18.9189 2.00177 19.0308 2.07165 19.1525C2.06166 19.1379 2.04669 19.1282 2.03671 19.1184C2.05168 19.133 2.07165 19.1574 2.09161 19.1768C2.13653 19.2547 2.18145 19.3326 2.22637 19.4153C2.19143 19.3375 2.15649 19.2645 2.11657 19.2109C2.22138 19.318 2.38109 19.4786 2.55578 19.6246L2.53082 19.7707C2.53082 19.7707 2.55578 19.795 2.56576 19.8047C2.68055 19.9946 2.72547 19.8972 2.71549 19.7512C2.80533 19.8193 2.89018 19.8826 2.97003 19.9216C2.94508 20.1795 3.41424 20.3109 3.41923 20.6225C3.59391 20.6663 4.22778 21.4013 4.46734 21.3526C4.45237 21.3769 4.48731 21.4353 4.40246 21.3477C4.55219 21.5473 4.70192 21.7468 4.89657 21.8734L4.85166 22.0486L5.37072 22.3163C5.52045 22.6181 5.57536 22.7544 5.26591 22.5889C5.93471 23.0562 5.75004 23.0172 6.334 23.3969L6.23917 23.4358C6.40387 23.6111 6.76323 23.8106 6.79816 23.9664C7.01777 24.4823 8.56499 25.9474 9.36356 27.0767C9.39849 26.6922 9.69796 27.6364 9.90259 27.5294C9.90259 27.6316 10.0074 27.8019 9.81275 27.6754C10.3368 28.1524 10.4416 28.5272 10.9108 28.7608C10.9108 28.863 10.7361 28.717 10.7511 28.7949C10.801 28.829 10.9457 28.9214 10.9657 29.0042C10.9856 29.0821 10.8509 28.9652 10.7561 28.902C11.2502 29.4277 11.4548 29.34 11.6395 29.2524C11.8142 29.5834 11.9439 29.71 12.2234 29.8171C12.2584 29.9533 12.3532 30.1529 12.0338 29.8365C12.1935 30.0263 12.997 31.0339 13.1318 30.9463C13.1567 31.029 13.3614 31.214 13.4163 31.2481C13.6309 31.4963 13.7507 31.6277 13.8655 31.764C14.0002 31.9198 14.14 32.0707 14.3945 32.3384L14.2598 32.1534C14.3446 32.1485 14.4145 32.1875 14.4894 32.2605C14.6391 32.1193 14.8337 32.022 15.1082 31.7689V31.7981C15.238 31.7007 15.3428 31.6277 15.4327 31.5645C15.5025 31.5158 15.5524 31.4768 15.5924 31.4428C15.6722 31.3746 15.7122 31.3357 15.7471 31.2919C15.822 31.2091 15.8918 31.1313 16.3261 30.8587L16.2063 30.8051C16.1065 30.5569 16.9849 30.3281 17.3642 29.8706L17.1596 29.9582C17.3442 29.6856 18.0679 29.6272 18.3325 29.4374C18.4023 29.4082 18.2726 29.5347 18.2077 29.6126C18.9464 29.1697 18.1877 29.4277 18.6369 28.9896C18.7817 28.975 18.6669 29.2427 18.9963 28.9799C19.2009 28.8922 19.7399 27.9772 20.284 27.7143C20.1442 27.7484 20.0045 27.7873 20.1941 27.5586C20.5185 27.247 21.2722 26.9453 21.4419 26.5315C21.4968 26.5072 21.5267 26.5072 21.5367 26.5169C21.7613 26.2541 22.3203 25.7235 22.4002 25.5094C22.9142 25.6019 23.8725 23.9713 24.1221 24.2536L24.9057 23.5478V23.5965C25.4347 23.173 25.5545 22.954 25.6743 22.7301C25.809 22.6473 25.7491 22.7495 25.7491 22.769C26.1434 22.477 26.3581 22.3115 26.5377 22.1314C26.6276 22.0438 26.7074 21.9513 26.7923 21.8393C26.9071 21.703 27.0618 21.5229 27.2065 21.3331L27.4261 21.3039C27.4711 21.2406 27.6208 21.1141 27.8504 20.9389C27.6507 20.6906 27.3762 20.3304 27.0318 19.9264C26.7873 19.6295 26.5527 19.3667 26.2732 19.1379C26.2882 19.1379 26.3231 19.1379 26.388 19.1817C25.5495 18.4759 24.9007 17.0449 24.2968 17.0449L23.7328 16.5874C24.3267 17.2931 23.4932 16.6117 23.6928 16.9427C23.4283 16.6896 23.1638 16.159 23.4782 16.4754L23.5082 16.5436C23.7927 16.5143 22.7994 15.6431 22.9342 15.5555C21.7014 14.2218 20.6084 12.8297 19.4704 11.5642V11.827L19.0761 11.3841C19.0013 11.2429 19.0412 11.1358 19.3207 11.4571C19.2458 11.2235 18.7767 10.9898 18.7417 11.0044C18.2376 10.3425 19.121 11.1066 18.9513 10.9168L18.7068 10.6686L18.7417 10.7416C18.4972 10.581 18.4223 10.615 18.0879 10.2354C17.8982 9.97252 18.0629 10.0407 17.9831 9.94331C17.9931 9.93358 17.9681 9.89951 17.8583 9.79729L17.3642 9.23267L17.459 9.54905C17.1845 9.34949 16.9899 9.02337 17.0997 9.38356C16.9449 8.84814 15.2879 7.26623 15.1382 6.98392C14.7489 6.71134 14.4394 6.37062 14.0651 5.94228C14.14 6.06397 14.0751 6.23433 13.7607 5.85954C14.13 5.7768 13.2666 5.10509 13.1767 4.65729C13.2965 5.02234 12.2085 3.65459 12.4131 4.20948C12.1585 3.88823 12.4879 4.11213 12.3382 3.82982C11.5846 3.19705 10.9607 2.19436 10.1172 1.33282C10.0723 1.34742 10.1571 1.53727 9.93254 1.39124L9.66801 0.777941C9.49332 0.617315 9.33361 0.777933 9.15393 0.359335C9.16891 0.427479 9.18887 0.529697 9.06909 0.422613C7.64165 -1.45621 5.70013 -3.01865 4.38749 -5.04351C4.54221 -4.75146 4.38749 -4.90236 4.22278 -5.08245C4.31762 -4.95103 4.13794 -5.0143 4.11797 -4.95102L3.56896 -5.79797C3.3244 -5.82717 2.84027 -6.58162 2.65061 -6.55729L2.88519 -6.34312C2.46095 -6.53295 2.97503 -5.63733 2.75043 -5.53025C3.22458 -5.32095 3.35434 -4.40588 4.103 -4.03109C4.18286 -3.87533 3.94828 -4.0895 3.96824 -3.98728C4.17786 -3.9094 4.35255 -3.74878 4.61209 -3.39345L4.56218 -3.41293C5.41065 -2.51732 5.69015 -2.05978 6.57356 -0.993813L6.59353 -1.1447C6.78319 -0.915932 6.79816 -0.842922 6.86804 -0.721237C7.23238 -0.584949 6.31403 -1.34426 6.6684 -1.24204C6.75324 -0.794235 8.08086 0.310665 8.0559 0.685459C8.36535 1.02618 8.06589 0.495628 8.37533 0.836348L8.40029 0.972635L8.55002 0.996967C8.73968 1.2306 8.77461 1.40097 8.73469 1.44965C8.68977 1.39124 8.57996 1.3085 8.52506 1.25496C8.7247 1.60054 9.28869 2.04834 9.35357 2.16516L9.08905 1.80984C9.98245 2.69084 10.9407 3.8785 11.8641 4.67676L11.8441 4.57453C12.5429 5.18783 12.2983 5.15864 13.012 5.87902L12.9771 5.85954C13.1567 5.97149 13.3564 6.15646 13.5411 6.36576C13.3215 6.21974 13.7706 6.80383 13.4911 6.60426C14.2498 7.2711 13.8904 6.91577 14.4894 7.26622L14.5243 7.43659C14.7389 7.54854 14.7838 7.53394 15.1432 7.89413C14.8038 7.64102 15.253 8.22512 14.8637 7.94768C15.4277 8.86275 16.0765 8.97956 16.1863 9.53445C16.7054 9.72915 15.6722 8.7654 15.8968 8.93089C15.807 8.70699 16.3111 9.10612 16.5157 9.36896C16.7403 9.62206 16.6605 10.0066 17.2394 10.6345C17.1845 10.5712 17.1646 10.581 17.1097 10.5177C17.2744 10.7951 17.5988 10.9217 17.7834 11.2819C18.048 11.3451 18.1178 11.6615 18.3075 11.5836L17.7485 11.0336C18.0879 11.3257 18.5371 11.4863 18.9464 12.0996C18.8765 12.085 18.6918 11.9584 18.572 11.866C18.6718 12.0607 18.8765 12.1434 18.9813 12.3478C18.7916 12.4306 18.3075 11.6713 17.8783 11.4181C17.9681 11.642 18.592 11.9876 18.2676 11.9536C18.7018 12.0314 18.8066 12.5961 19.3506 12.8881L19.2358 12.9368C19.3107 12.9903 19.4804 13.0974 19.5902 13.224L19.2708 13.0974C19.685 13.3603 19.7948 13.8373 20.1492 14.1244C19.5153 13.4333 20.1143 13.8762 19.9096 13.5258C20.808 14.2802 20.1242 14.2169 21.0426 15.1417C20.9128 15.0249 20.6533 14.6063 20.8779 14.7767C21.0276 14.9762 21.2123 15.244 21.2672 15.3997C21.8661 16.0179 21.2672 15.2245 21.5716 15.4484C21.6615 15.7599 21.9011 15.721 22.1855 15.9692L22.0957 16.0471C22.6996 16.821 22.46 16.0763 22.9841 16.7869L22.6098 16.6214L22.9492 16.933L22.7845 16.9524C23.1987 17.2542 23.2836 17.3905 23.583 17.775C23.5681 17.6339 23.7877 17.6825 24.0821 17.9989C24.2269 18.2618 23.8875 17.9502 24.3117 18.3932C24.162 18.3396 23.9873 18.2861 23.8925 18.0184C23.8426 18.0233 23.7427 17.9648 23.6978 17.9697C23.8525 18.2569 24.2219 18.5733 24.3716 18.7388C24.3167 18.6706 24.2518 18.5927 24.2319 18.5441L24.9556 19.0941C25.0155 19.2255 24.9156 19.1671 24.8108 19.1087C24.9406 19.2353 25.0654 19.2888 25.255 19.4786C25.1352 19.4932 25.0704 19.5711 24.7859 19.3229L25.4397 19.8826C25.4447 19.9508 25.6443 20.2817 25.5445 20.2233C25.6094 20.3158 25.6942 20.4034 25.7891 20.491C25.839 20.5349 25.8889 20.5787 25.9438 20.6225C25.9887 20.6614 26.0736 20.7344 26.0736 20.7198C26.1484 20.7393 26.2682 20.8074 26.3081 20.8756C26.2932 20.8853 26.2832 20.8902 26.2682 20.8999C26.2882 20.9096 26.2932 20.9242 26.2782 20.9583C26.2333 20.9875 26.1884 21.0167 26.1434 21.0362L26.1135 21.0508C26.1135 21.0508 26.0935 21.0605 26.0586 21.0849L25.8839 21.2163C25.6543 21.3964 25.4247 21.596 25.2051 21.8734L24.7909 22.0048C24.4066 22.3893 25.3449 21.815 24.701 22.4575C24.2518 22.9199 24.4215 22.5062 24.2169 22.6181C24.0322 22.8907 23.7328 23.3872 23.1887 23.6695C23.3135 23.5186 23.4483 23.4358 23.578 23.3044L23.5481 23.2898ZM18.5121 27.7581C18.592 27.6559 18.7367 27.4271 18.8565 27.4174C18.8366 27.617 18.7068 27.6413 18.5121 27.7581ZM11.6994 28.5467C11.7942 28.5905 11.879 28.717 11.9589 28.8679C11.8691 28.7852 11.7792 28.6781 11.6994 28.5467ZM-8.08013 8.06936H-8.06516C-7.90545 8.32247 -7.96035 8.23486 -8.08013 8.06936ZM-8.44947 7.59235C-8.50437 7.55828 -8.51435 7.57287 -8.50936 7.60208C-8.45945 7.61181 -8.36462 7.71403 -8.26979 7.83085C-8.27478 7.77731 -8.30972 7.70917 -8.45446 7.59235H-8.44947ZM17.8683 9.92385L17.9232 10.0309C17.7186 9.85571 17.7934 9.88978 17.8683 9.92385Z" fill="#FFFDE7"/>
<path d="M12.6027 29.2916C12.6126 29.3305 12.6027 29.3549 12.5927 29.3743C12.6426 29.3987 12.6625 29.3841 12.6027 29.2916Z" fill="#FFFDE7"/>
<path d="M3.44916 18.8799C3.11975 18.4272 3.24453 18.8799 2.96004 18.4613C2.82528 18.4029 3.18962 18.8069 3.05986 18.7387C3.33436 18.948 3.42919 19.0989 3.44916 18.8799Z" fill="#FFFDE7"/>
<path d="M3.05978 18.7388C3.01486 18.7047 2.96995 18.6706 2.91505 18.6366C2.9949 18.6998 3.03483 18.7242 3.05978 18.7388Z" fill="#FFFDE7"/>
<path d="M17.5338 28.1769V28.2256C17.6087 28.2207 17.6736 28.1672 17.8083 28.0601L17.5338 28.1769Z" fill="#FFFDE7"/>
<path d="M21.3121 25.0617L21.2472 25.1153L21.4619 25.1201L21.3121 25.0617Z" fill="#FFFDE7"/>
<path d="M24.2867 22.2385C24.1569 22.3455 24.0272 22.4964 23.8974 22.6035C24.1569 22.3455 24.4414 22.3455 24.2867 22.2385Z" fill="#FFFDE7"/>
<path d="M34.721 55.7097L35.2964 55.1571L35.2875 55.1485L26.1608 56.996L27.8339 48.0693L27.2762 48.6132L25.6031 57.5571L34.721 55.7097Z" fill="#FFFDE7"/>
<path d="M23.4432 53.4997C23.7708 53.1803 23.7708 52.6709 23.4432 52.3429L22.2659 53.4911C22.5934 53.8105 23.1245 53.8191 23.4521 53.4911L23.4432 53.4997Z" fill="#FFFDE7"/>
<path d="M27.3738 48.5182L27.9403 47.9657V47.9571L18.8135 49.8132L20.4866 40.8866L19.9289 41.4218L18.2558 50.3657L27.3738 48.5182Z" fill="#FFFDE7"/>
<path d="M22.7791 45.8163C23.1066 46.1357 23.6377 46.1443 23.9653 45.8163C24.2928 45.4968 24.2928 44.9875 23.9653 44.6594C23.6377 44.34 23.1066 44.3314 22.7791 44.6594C22.4515 44.9789 22.4515 45.4968 22.7791 45.8163Z" fill="#FFFDE7"/>
<path d="M16.0958 46.3083C16.4233 45.9889 16.4233 45.4795 16.0958 45.1514L14.9184 46.2997C15.246 46.6191 15.7771 46.6277 16.1047 46.2997L16.0958 46.3083Z" fill="#FFFDE7"/>
<path d="M22.2567 52.3339C21.9292 52.6533 21.9292 53.1713 22.2567 53.4907L23.4341 52.3425C23.1065 52.0231 22.5754 52.0145 22.2479 52.3425L22.2567 52.3339Z" fill="#FFFDE7"/>
<path d="M20.0259 41.3268L20.5924 40.7743V40.7657L11.4568 42.6218L13.1299 33.6952L12.581 34.2304L10.8991 43.1743L20.0259 41.3268Z" fill="#FFFDE7"/>
<path d="M15.4316 38.6249C15.7591 38.9443 16.2903 38.9529 16.6178 38.6249C16.9453 38.2968 16.9453 37.7961 16.6178 37.468C16.2903 37.1486 15.7591 37.14 15.4316 37.468C15.1041 37.7961 15.1041 38.3054 15.4316 38.6249Z" fill="#FFFDE7"/>
<path d="M8.74791 39.1169C9.07544 38.7975 9.07544 38.2881 8.74791 37.9601L7.57055 39.1083C7.89808 39.4277 8.42922 39.4363 8.75676 39.1083L8.74791 39.1169Z" fill="#FFFDE7"/>
<path d="M14.9093 45.1429C14.5817 45.4624 14.5817 45.9804 14.9093 46.2998L16.0866 45.1516C15.7591 44.8322 15.228 44.8235 14.9004 45.1516L14.9093 45.1429Z" fill="#FFFDE7"/>
<path d="M12.6785 34.1351L13.2451 33.5825L4.10946 35.43L5.78256 26.5034L5.23371 27.0387L3.55177 35.9912L12.6785 34.1351Z" fill="#FFFDE7"/>
<path d="M8.08428 31.433C8.41181 31.7524 8.94295 31.761 9.27049 31.433C9.59803 31.1135 9.59803 30.6042 9.27049 30.2762C8.94295 29.9481 8.41181 29.9481 8.08428 30.2762C7.75674 30.6042 7.75674 31.1135 8.08428 31.433Z" fill="#FFFDE7"/>
<path d="M1.39192 31.925C1.71946 31.6056 1.71946 31.0963 1.39192 30.7682L0.214557 31.9164C0.542094 32.2358 1.07324 32.2444 1.40077 31.9164L1.39192 31.925Z" fill="#FFFDE7"/>
<path d="M7.56192 37.9599C7.23439 38.2793 7.23439 38.7973 7.56192 39.1167L8.73929 37.9685C8.41175 37.6491 7.88061 37.6404 7.55307 37.9685L7.56192 37.9599Z" fill="#FFFDE7"/>
<path d="M5.32224 26.9528L5.89764 26.4003L5.88879 26.3917L-3.23797 28.2391L-1.56488 19.3125L-2.12258 19.8478L-3.79567 28.8003L5.32224 26.9528Z" fill="#FFFDE7"/>
<path d="M0.736838 24.242C1.06437 24.5615 1.59551 24.5701 1.92305 24.242C2.25059 23.9226 2.25059 23.4132 1.92305 23.0852C1.59551 22.7571 1.06437 22.7571 0.736838 23.0852C0.409301 23.4046 0.409301 23.9226 0.736838 24.242Z" fill="#FFFDE7"/>
<path d="M0.205639 30.7685C-0.121898 31.0879 -0.121898 31.6059 0.205639 31.9253L1.383 30.7771C1.05546 30.4576 0.524321 30.449 0.196785 30.7771L0.205639 30.7685Z" fill="#FFFDE7"/>
</g>
<defs>
<clipPath id="clip0_3638_59006">
<rect width="26" height="61" fill="white" transform="matrix(-1 0 0 -1 26 61)"/>
</clipPath>
</defs>
</svg>
